<svg viewBox="0 0 330 200" xmlns="http://www.w3.org/2000/svg"><g><g><g><g><g><line x1="40" y1="165.57950467740375" x2="35" y2="165.57950467740375" style="visibility: inherit;" fill="rgb(0, 0, 0)" stroke="rgb(204, 204, 204)" stroke-width="1px"></line><line x1="40" y1="149.88187183101508" x2="35" y2="149.88187183101508" style="visibility: inherit;" fill="rgb(0, 0, 0)" stroke="rgb(204, 204, 204)" stroke-width="1px"></line><line x1="40" y1="134.18423898462638" x2="35" y2="134.18423898462638" style="visibility: inherit;" fill="rgb(0, 0, 0)" stroke="rgb(204, 204, 204)" stroke-width="1px"></line><line x1="40" y1="118.48660613823768" x2="35" y2="118.48660613823768" style="visibility: inherit;" fill="rgb(0, 0, 0)" stroke="rgb(204, 204, 204)" stroke-width="1px"></line><line x1="40" y1="102.78897329184899" x2="35" y2="102.78897329184899" style="visibility: inherit;" fill="rgb(0, 0, 0)" stroke="rgb(204, 204, 204)" stroke-width="1px"></line><line x1="40" y1="87.0913404454603" x2="35" y2="87.0913404454603" style="visibility: inherit;" fill="rgb(0, 0, 0)" stroke="rgb(204, 204, 204)" stroke-width="1px"></line><line x1="40" y1="71.39370759907162" x2="35" y2="71.39370759907162" style="visibility: inherit;" fill="rgb(0, 0, 0)" stroke="rgb(204, 204, 204)" stroke-width="1px"></line><line x1="40" y1="55.69607475268292" x2="35" y2="55.69607475268292" style="visibility: inherit;" fill="rgb(0, 0, 0)" stroke="rgb(204, 204, 204)" stroke-width="1px"></line><line x1="40" y1="39.99844190629423" x2="35" y2="39.99844190629423" style="visibility: inherit;" fill="rgb(0, 0, 0)" stroke="rgb(204, 204, 204)" stroke-width="1px"></line><line x1="40" y1="24.300809059905532" x2="35" y2="24.300809059905532" style="visibility: inherit;" fill="rgb(0, 0, 0)" stroke="rgb(204, 204, 204)" stroke-width="1px"></line><line x1="40" y1="8.603176213516832" x2="35" y2="8.603176213516832" style="visibility: inherit;" fill="rgb(0, 0, 0)" stroke="rgb(204, 204, 204)" stroke-width="1px"></line></g><g transform="translate(30, 0)"><text x="0" y="165.57950467740375" dx="0em" dy="0.3em" style="text-anchor: end; visibility: inherit; font-family: &quot;Helvetica Neue&quot;, sans-serif; font-size: 12px; font-weight: 200;" fill="rgb(50, 49, 63)" stroke="none" stroke-width="1px">0.1</text><text x="0" y="149.88187183101508" dx="0em" dy="0.3em" style="text-anchor: end; visibility: hidden; font-family: &quot;Helvetica Neue&quot;, sans-serif; font-size: 12px; font-weight: 200;" fill="rgb(50, 49, 63)" stroke="none" stroke-width="1px">0.2</text><text x="0" y="134.18423898462638" dx="0em" dy="0.3em" style="text-anchor: end; visibility: inherit; font-family: &quot;Helvetica Neue&quot;, sans-serif; font-size: 12px; font-weight: 200;" fill="rgb(50, 49, 63)" stroke="none" stroke-width="1px">0.3</text><text x="0" y="118.48660613823768" dx="0em" dy="0.3em" style="text-anchor: end; visibility: hidden; font-family: &quot;Helvetica Neue&quot;, sans-serif; font-size: 12px; font-weight: 200;" fill="rgb(50, 49, 63)" stroke="none" stroke-width="1px">0.4</text><text x="0" y="102.78897329184899" dx="0em" dy="0.3em" style="text-anchor: end; visibility: inherit; font-family: &quot;Helvetica Neue&quot;, sans-serif; font-size: 12px; font-weight: 200;" fill="rgb(50, 49, 63)" stroke="none" stroke-width="1px">0.5</text><text x="0" y="87.0913404454603" dx="0em" dy="0.3em" style="text-anchor: end; visibility: hidden; font-family: &quot;Helvetica Neue&quot;, sans-serif; font-size: 12px; font-weight: 200;" fill="rgb(50, 49, 63)" stroke="none" stroke-width="1px">0.6</text><text x="0" y="71.39370759907162" dx="0em" dy="0.3em" style="text-anchor: end; visibility: inherit; font-family: &quot;Helvetica Neue&quot;, sans-serif; font-size: 12px; font-weight: 200;" fill="rgb(50, 49, 63)" stroke="none" stroke-width="1px">0.7</text><text x="0" y="55.69607475268292" dx="0em" dy="0.3em" style="text-anchor: end; visibility: hidden; font-family: &quot;Helvetica Neue&quot;, sans-serif; font-size: 12px; font-weight: 200;" fill="rgb(50, 49, 63)" stroke="none" stroke-width="1px">0.8</text><text x="0" y="39.99844190629423" dx="0em" dy="0.3em" style="text-anchor: end; visibility: inherit; font-family: &quot;Helvetica Neue&quot;, sans-serif; font-size: 12px; font-weight: 200;" fill="rgb(50, 49, 63)" stroke="none" stroke-width="1px">0.9</text><text x="0" y="24.300809059905532" dx="0em" dy="0.3em" style="text-anchor: end; visibility: hidden; font-family: &quot;Helvetica Neue&quot;, sans-serif; font-size: 12px; font-weight: 200;" fill="rgb(50, 49, 63)" stroke="none" stroke-width="1px">1</text><text x="0" y="8.603176213516832" dx="0em" dy="0.3em" style="text-anchor: end; visibility: inherit; font-family: &quot;Helvetica Neue&quot;, sans-serif; font-size: 12px; font-weight: 200;" fill="rgb(50, 49, 63)" stroke="none" stroke-width="1px">1.1</text></g><line x1="40" y1="0" x2="40" y2="178" fill="rgb(0, 0, 0)" stroke="rgb(204, 204, 204)" stroke-width="1px"></line></g></g><g transform="translate(40, 0)" clip-path="url(#clip_0)"><clipPath id="clip_0"><rect width="290" height="178"></rect></clipPath><g><g><g><line x1="28.353743394502146" y1="0" x2="28.353743394502146" y2="178" fill="rgb(0, 0, 0)" stroke="rgb(60, 60, 60)" stroke-width="1px" opacity="0.25"></line><line x1="61.23562279183319" y1="0" x2="61.23562279183319" y2="178" fill="rgb(0, 0, 0)" stroke="rgb(60, 60, 60)" stroke-width="1px" opacity="0.25"></line><line x1="94.11750218916423" y1="0" x2="94.11750218916423" y2="178" fill="rgb(0, 0, 0)" stroke="rgb(60, 60, 60)" stroke-width="1px" opacity="0.25"></line><line x1="126.99938158649525" y1="0" x2="126.99938158649525" y2="178" fill="rgb(0, 0, 0)" stroke="rgb(60, 60, 60)" stroke-width="1px" opacity="0.25"></line><line x1="159.8812609838263" y1="0" x2="159.8812609838263" y2="178" fill="rgb(0, 0, 0)" stroke="rgb(60, 60, 60)" stroke-width="1px" opacity="0.25"></line><line x1="192.76314038115734" y1="0" x2="192.76314038115734" y2="178" fill="rgb(0, 0, 0)" stroke="rgb(60, 60, 60)" stroke-width="1px" opacity="0.25"></line><line x1="225.64501977848838" y1="0" x2="225.64501977848838" y2="178" fill="rgb(0, 0, 0)" stroke="rgb(60, 60, 60)" stroke-width="1px" opacity="0.25"></line><line x1="258.52689917581944" y1="0" x2="258.52689917581944" y2="178" fill="rgb(0, 0, 0)" stroke="rgb(60, 60, 60)" stroke-width="1px" opacity="0.25"></line></g><g><line x1="0" y1="165.57950467740375" x2="290" y2="165.57950467740375" fill="rgb(0, 0, 0)" stroke="rgb(60, 60, 60)" stroke-width="1px" opacity="0.25"></line><line x1="0" y1="149.88187183101508" x2="290" y2="149.88187183101508" fill="rgb(0, 0, 0)" stroke="rgb(60, 60, 60)" stroke-width="1px" opacity="0.25"></line><line x1="0" y1="134.18423898462638" x2="290" y2="134.18423898462638" fill="rgb(0, 0, 0)" stroke="rgb(60, 60, 60)" stroke-width="1px" opacity="0.25"></line><line x1="0" y1="118.48660613823768" x2="290" y2="118.48660613823768" fill="rgb(0, 0, 0)" stroke="rgb(60, 60, 60)" stroke-width="1px" opacity="0.25"></line><line x1="0" y1="102.78897329184899" x2="290" y2="102.78897329184899" fill="rgb(0, 0, 0)" stroke="rgb(60, 60, 60)" stroke-width="1px" opacity="0.25"></line><line x1="0" y1="87.0913404454603" x2="290" y2="87.0913404454603" fill="rgb(0, 0, 0)" stroke="rgb(60, 60, 60)" stroke-width="1px" opacity="0.25"></line><line x1="0" y1="71.39370759907162" x2="290" y2="71.39370759907162" fill="rgb(0, 0, 0)" stroke="rgb(60, 60, 60)" stroke-width="1px" opacity="0.25"></line><line x1="0" y1="55.69607475268292" x2="290" y2="55.69607475268292" fill="rgb(0, 0, 0)" stroke="rgb(60, 60, 60)" stroke-width="1px" opacity="0.25"></line><line x1="0" y1="39.99844190629423" x2="290" y2="39.99844190629423" fill="rgb(0, 0, 0)" stroke="rgb(60, 60, 60)" stroke-width="1px" opacity="0.25"></line><line x1="0" y1="24.300809059905532" x2="290" y2="24.300809059905532" fill="rgb(0, 0, 0)" stroke="rgb(60, 60, 60)" stroke-width="1px" opacity="0.25"></line><line x1="0" y1="8.603176213516832" x2="290" y2="8.603176213516832" fill="rgb(0, 0, 0)" stroke="rgb(60, 60, 60)" stroke-width="1px" opacity="0.25"></line></g></g></g><g><g><line x1="0" y1="181.27713752379245" x2="290" y2="181.27713752379245" fill="rgb(0, 0, 0)" stroke="rgb(153, 153, 153)" stroke-width="1.5px"></line></g></g><g><g><line x1="61.23562279183319" y1="0" x2="61.23562279183319" y2="178" fill="rgb(0, 0, 0)" stroke="rgb(153, 153, 153)" stroke-width="1.5px"></line></g></g><g><g><g><g><g><path stroke="rgb(51, 187, 238)" stroke-width="2px" d="M61.23562279183319,11.543926171416189L62.87971676169973,-11.541013768856885L64.52381073156629,34.040336814495646L66.16790470143285,47.81868270391655L67.81199867129939,55.11090570835435L69.45609264116594,81.93327601382087L71.1001866110325,93.06752656154427L72.74428058089906,89.77143213018614L74.3883745507656,92.47554003546254L76.03246852063216,109.5226622311288L77.67656249049871,111.38485728343397L79.32065646036527,118.6629004826109L80.9647504302318,118.3855854434401L82.60884440009836,119.48062746943839L84.25293836996491,123.54361678122038L85.89703233983147,130.22297664308672L87.54112630969802,127.95554054115499L89.18522027956458,125.38669891616794L90.82931424943112,131.11559385865706L92.47340821929768,129.58468610916572L94.11750218916423,134.91715072196558L95.76159615903079,132.97460389293775L97.40569012889733,140.32291176180706L99.0497840987639,132.51038272966463L100.69387806863044,116.54244760090728L102.337972038497,112.25043668479574L103.98206600836355,119.10796599897728L105.62615997823008,94.8197660596816L107.27025394809662,108.171031752912L108.91434791796318,113.06303148380118L110.55844188782973,111.59224370874871L112.20253585769629,112.68477701989144L113.84662982756284,117.91122021072574L115.4907237974294,108.28212055077469L117.13481776729594,121.9517298176147L118.7789117371625,115.39087407244033L120.42300570702905,119.60227883394384L122.06709967689561,113.4288564397972L123.71119364676215,117.54604392787674L125.35528761662871,121.12952385368894L126.99938158649525,124.14519267090775L128.6434755563618,130.3409128973439L130.28756952622837,127.73013124674341L131.93166349609493,132.0475181449906L133.57575746596146,131.42878614225586L135.21985143582802,136.8976199364107L136.86394540569458,137.518308155083L138.50803937556114,128.86743518895432L140.15213334542767,125.69789503446782L141.79622731529423,131.30264920233196L143.44032128516076,135.80313643571864L145.08441525502732,137.48911669679376L146.72850922489388,130.15678077936684L148.37260319476044,135.27222384951364L150.016697164627,135.65693711072927L151.66079113449354,136.55602631721246L153.3048851043601,126.47418857026017L154.94897907422666,135.7824671093348L156.59307304409322,137.8634649134299L158.23716701395975,139.99711350326075L159.8812609838263,138.29515010579888L161.52535495369287,122.8377344924325L163.16944892355943,131.46332635690854L164.81354289342593,129.98001792228814L166.4576368632925,132.4808350920715L168.10173083315905,140.67988981952175L169.7458248030256,136.61623891104068L171.38991877289214,131.47414744089994L173.0340127427587,136.2940165091166L174.67810671262527,138.0243617583385L176.32220068249183,137.4967986109809L177.96629465235836,133.54766921750314L179.61038862222492,139.70814475919195L181.25448259209148,138.4784224950772L182.89857656195804,144.4160457689524L184.54267053182457,124.8658937406201L186.18676450169113,124.35884142694971L187.8308584715577,115.86271254527409L189.47495244142425,121.35087838189118L191.11904641129078,117.73725454697725L192.76314038115734,108.99126449601708L194.4072343510239,112.92002713057833L196.05132832089046,106.01796192714134L197.695422290757,113.0134141436595L199.33951626062355,117.81285414938316L200.98361023049011,109.76419460539049L202.62770420035667,121.79750515413923L204.2717981702232,120.06596259639134L205.91589214008977,108.96236880695339L207.55998610995633,114.78369795716397L209.2040800798229,100.11996585004374L210.84817404968942,114.18610251329204L212.49226801955598,120.32589804622035L214.13636198942254,101.05774944636141L215.7804559592891,91.26934414205554L217.4245499291556,105.3602984342377L219.06864389902216,105.03578088344582L220.71273786888872,105.12877767666896L222.35683183875528,114.69374938744825L224.00092580862182,133.80347401217722L225.64501977848838,143.34733770988984L227.28911374835494,150.62324132005935L228.9332077182215,155.9060006356114L230.57730168808803,158.60113899607134L232.2213956579546,160.74597736249825L233.86548962782115,152.1347029497802L235.5095835976877,153.1254517650797L237.15367756755424,158.20765260117318L238.7977715374208,160.57139714814247L240.44186550728736,162.94728820220286L242.08595947715392,163.79452216917412L243.73005344702045,163.85906464135576L245.374147416887,163.0208696282126L247.01824138675357,164.26106262239702L248.66233535662013,158.60141776832748L250.30642932648666,161.23018164426375L251.95052329635323,165.06312717806662L253.59461726621979,160.22073192643262L255.23871123608635,157.06830234112005L256.8828052059529,160.07309751522666L258.52689917581944,162.0634287211484L260.170993145686,164.30847532411045L261.81508711555256,165.94602037203026L263.45918108541906,163.93910003993233L265.1032750552856,163.634695434813" style="fill: none;" fill="none"></path></g><g><path stroke="rgb(204, 51, 17)" stroke-width="2px" d="M64.52381073156629,-14.94449341338111L66.16790470143285,15.488237768247131L67.81199867129939,49.2580589851091L69.45609264116594,67.82536301004444L71.1001866110325,80.6349430963236L72.74428058089906,86.5603798527958L74.3883745507656,84.60711958975688L76.03246852063216,90.47942755094861L77.67656249049871,104.5099892790732L79.32065646036527,108.44763910995688L80.9647504302318,115.3279539622812L82.60884440009836,108.79382069817164L84.25293836996491,113.53380940780923L85.89703233983147,122.48642958347529L87.54112630969802,121.48908727954598L89.18522027956458,126.65668620664286L90.82931424943112,126.31565696963011L92.47340821929768,106.83811355616824L94.11750218916423,119.65247420033415L95.76159615903079,122.80554446110446L97.40569012889733,127.48038296565966L99.0497840987639,126.87031169648472L100.69387806863044,134.1990044213144L102.337972038497,124.72373652728001L103.98206600836355,119.44082701109053L105.62615997823008,108.85925997413601L107.27025394809662,97.92882070153823L108.91434791796318,99.32938809771439L110.55844188782973,101.27020848176731L112.20253585769629,95.68935018658173L113.84662982756284,103.62989078662832L115.4907237974294,114.44330333490674L117.13481776729594,119.76806782494796L118.7789117371625,120.52961040545512L120.42300570702905,121.28128873253172L122.06709967689561,114.98471902537403L123.71119364676215,117.44422342867442L125.35528761662871,125.23470951195341L126.99938158649525,117.9348246961086L128.6434755563618,122.02209937354895L130.28756952622837,124.4618085521032L131.93166349609493,128.48124539710636L133.57575746596146,135.2133509369373L135.21985143582802,134.44860911998046L136.86394540569458,128.1964998239622L138.50803937556114,130.85149449108786L140.15213334542767,129.60600059315072L141.79622731529423,133.9094931785221L143.44032128516076,138.27638482776683L145.08441525502732,140.12752909852242L146.72850922489388,139.47987511841635L148.37260319476044,140.02443636959282L150.016697164627,141.15588141201835L151.66079113449354,141.0680837491459L153.3048851043601,142.4054272868962L154.94897907422666,133.47695988062566L156.59307304409322,131.06419422823456L158.23716701395975,138.99498106931455L159.8812609838263,135.10692994168926L161.52535495369287,139.9334731524359L163.16944892355943,141.07282972524442L164.81354289342593,140.6279474476578L166.4576368632925,143.32577967190878L168.10173083315905,145.8395132545071L169.7458248030256,141.1054231027804L171.38991877289214,143.09530339433795L173.0340127427587,142.39837091548264L174.67810671262527,146.57789317637165L176.32220068249183,145.606143806278L177.96629465235836,144.36569585221005L179.61038862222492,144.96843823628677L181.25448259209148,143.39682956419458L182.89857656195804,144.09084524727902L184.54267053182457,136.96360107816704L186.18676450169113,136.42470271100532L187.8308584715577,136.18896502890863L189.47495244142425,129.18747478044747L191.11904641129078,129.07051935122243L192.76314038115734,132.6860807513696L194.4072343510239,130.6196506492132L196.05132832089046,127.42204218482985L197.695422290757,124.42912424935291L199.33951626062355,122.03665404850975L200.98361023049011,120.27322783302444L202.62770420035667,124.94390627400568L204.2717981702232,121.58216797549574L205.91589214008977,120.61446413722351L207.55998610995633,115.81694511811537L209.2040800798229,121.50647072084716L210.84817404968942,119.42504861930126L212.49226801955598,119.70328580862787L214.13636198942254,121.56189037279046L215.7804559592891,128.2308671720123L217.4245499291556,130.43735866331275L219.06864389902216,127.31293271840917L220.71273786888872,129.43110583875722L222.35683183875528,130.7973713454413L224.00092580862182,144.03382784224883L225.64501977848838,152.3525266260218L227.28911374835494,156.52580935899888L228.9332077182215,158.83867491954L230.57730168808803,160.8623951661848L232.2213956579546,162.78661536074517L233.86548962782115,164.21693880730348L235.5095835976877,166.13468839839985L237.15367756755424,166.65380872283134L238.7977715374208,165.56776514651332L240.44186550728736,165.94269969776408L242.08595947715392,165.63417187177754L243.73005344702045,165.8619784451128L245.374147416887,164.93767110822003L247.01824138675357,165.13308696749988L248.66233535662013,165.89187270961193L250.30642932648666,166.9655870907905L251.95052329635323,166.63802012752168L253.59461726621979,166.0795716931657L255.23871123608635,166.67211487382954L256.8828052059529,167.06465189382638L258.52689917581944,167.79724475422293L260.170993145686,166.45607352223237L261.81508711555256,165.98383220505087L263.45918108541906,166.71369916713027L265.1032750552856,166.73754101326705" style="fill: none;" fill="none"></path></g></g></g></g><g opacity="0.2"><g><g><g><path stroke="rgb(51, 187, 238)" stroke-width="2px" d="M61.23562279183319,11.543926171416189L62.87971676169973,-25.391977733020724L64.52381073156629,77.79843337451406L66.16790470143285,64.02201746987548L67.81199867129939,64.63163206294837L69.45609264116594,119.03827019959103L71.1001866110325,108.98968299279753L72.74428058089906,84.96569480675942L74.3883745507656,96.46357394982569L76.03246852063216,134.83565195188405L77.67656249049871,114.16125988982489L79.32065646036527,129.54035849168474L80.9647504302318,117.97051836640213L82.60884440009836,121.12104520711037L84.25293836996491,129.6333248574761L85.89703233983147,140.23730563381582L87.54112630969802,124.55534589122514L89.18522027956458,121.53408870729767L90.82931424943112,139.70806353290757L92.47340821929768,127.28846441596092L94.11750218916423,142.91555519613289L95.76159615903079,130.06084756972683L97.40569012889733,151.34522848559072L99.0497840987639,120.79168172830546L100.69387806863044,92.59065840102001L102.337972038497,105.81243861409438L103.98206600836355,129.39424242371157L105.62615997823008,58.38750343884617L107.27025394809662,128.19791799435495L108.91434791796318,120.40102837640106L110.55844188782973,109.38606253389923L112.20253585769629,114.32357676922797L113.84662982756284,125.75088437304487L115.4907237974294,93.8384717505608L117.13481776729594,142.45614313039903L118.7789117371625,105.5495906238574L120.42300570702905,125.91938591104177L122.06709967689561,104.16872290588499L123.71119364676215,123.7218251370642L125.35528761662871,126.50474373043167L126.99938158649525,128.66869589068918L128.6434755563618,139.6344932295443L130.28756952622837,123.81395877272723L131.93166349609493,138.52359849049145L133.57575746596146,130.50068813831456L135.21985143582802,145.10087062679025L136.86394540569458,138.44934048303338L138.50803937556114,115.89112574024685L140.15213334542767,120.94358480284484L141.79622731529423,139.70978045401495L143.44032128516076,142.55386728574405L145.08441525502732,140.01808708839417L146.72850922489388,119.15827690325852L148.37260319476044,142.94538845472044L150.016697164627,136.23400700255212L151.66079113449354,137.90466012693636L153.3048851043601,111.35143194983743L154.94897907422666,149.74488491794355L156.59307304409322,140.98496161957223L158.23716701395975,143.19758638800673L159.8812609838263,135.74220500960627L161.52535495369287,99.65161107238355L163.16944892355943,144.40171415362238L164.81354289342593,127.75505527035756L166.4576368632925,136.2320608467465L168.10173083315905,152.97847191069707L169.7458248030256,130.5207625483191L171.38991877289214,123.76101023568884L173.0340127427587,143.52382011144155L174.67810671262527,140.61987963217143L176.32220068249183,136.7054538899445L177.96629465235836,127.62397512728646L179.61038862222492,148.9488580717252L181.25448259209148,136.63383909890513L182.89857656195804,153.32248067976516L184.54267053182457,95.54066569812166L186.18676450169113,123.59826295644412L187.8308584715577,103.11851922276068L189.47495244142425,129.5831271368168L191.11904641129078,112.31681879460638L192.76314038115734,95.87227941957681L194.4072343510239,118.8131710824202L196.05132832089046,95.66486412198587L197.695422290757,123.50659246843676L199.33951626062355,125.01201415796864L200.98361023049011,97.6912052894015L202.62770420035667,139.84747097726233L204.2717981702232,117.46864875976952L205.91589214008977,92.30697812279645L207.55998610995633,123.51569168247985L209.2040800798229,78.12436768936341L210.84817404968942,135.28530750816452L212.49226801955598,129.53559134561277L214.13636198942254,72.15552654657303L215.7804559592891,76.58673618559675L217.4245499291556,126.49672987251095L219.06864389902216,104.54900455725803L220.71273786888872,105.26827286650365L222.35683183875528,129.04120695361718L224.00092580862182,162.4680609492707L225.64501977848838,157.66313325645876L227.28911374835494,161.5370967353136L228.9332077182215,163.83013960893948L230.57730168808803,162.64384653676123L232.2213956579546,163.96323491213863L233.86548962782115,139.21779133070316L235.5095835976877,154.61157498802893L237.15367756755424,165.8309538553134L238.7977715374208,164.1170139685964L240.44186550728736,166.5111247832934L242.08595947715392,165.06537311963098L243.73005344702045,163.95587834962822L245.374147416887,161.7635771084979L247.01824138675357,166.12135211367365L248.66233535662013,150.11195048722314L250.30642932648666,165.17332745816816L251.95052329635323,170.81254547877091L253.59461726621979,152.95713904898165L255.23871123608635,152.33965796315118L256.8828052059529,164.58029027638662L258.52689917581944,165.048925530031L260.170993145686,167.6760452285535L261.81508711555256,168.40233794391003L263.45918108541906,160.9287195417854L265.1032750552856,163.178088527134" style="fill: none;" fill="none"></path></g><g><path stroke="rgb(204, 51, 17)" stroke-width="2px" d="M62.87971676169973,-60.29777914968693L64.52381073156629,50.4806747309115L66.16790470143285,51.27712963784191L67.81199867129939,93.34793756584409L69.45609264116594,93.51062870597902L71.1001866110325,98.95284757298411L72.74428058089906,95.19972352792514L74.3883745507656,81.72644010304798L76.03246852063216,99.19912049105932L77.67656249049871,125.42857570903531L79.32065646036527,114.33268533978935L80.9647504302318,125.62596081901269L82.60884440009836,99.00542184929067L84.25293836996491,120.63822079346977L85.89703233983147,135.90904576560558L87.54112630969802,119.99349586549025L89.18522027956458,134.40677254448036L90.82931424943112,125.80416506648278L92.47340821929768,77.62357876059403L94.11750218916423,138.87331239659068L95.76159615903079,127.53504609913989L97.40569012889733,134.4925484259611L99.0497840987639,125.95521201959806L100.69387806863044,145.19199141934772L102.337972038497,110.51087509391772L103.98206600836355,111.51647625432388L105.62615997823008,92.98692566390216L107.27025394809662,81.53317186112095L108.91434791796318,101.43023841790634L110.55844188782973,104.18143841424958L112.20253585769629,87.31806385420735L113.84662982756284,115.54070073875711L115.4907237974294,130.66342138278182L117.13481776729594,127.75521433116859L118.7789117371625,121.67192425657866L120.42300570702905,122.40880621151695L122.06709967689561,105.53986452308847L123.71119364676215,121.13348001992608L125.35528761662871,136.9204386108371L126.99938158649525,106.98499748697856L128.6434755563618,128.1530113847922L130.28756952622837,128.12137231817346L131.93166349609493,134.51040066287032L133.57575746596146,145.31150924493426L135.21985143582802,133.3014963946644L136.86394540569458,118.81833588051973L138.50803937556114,134.83398649162731L140.15213334542767,127.73775974628697L141.79622731529423,140.36473205649224L143.44032128516076,144.82672230158101L145.08441525502732,142.90424550464232L146.72850922489388,138.50839414826007L148.37260319476044,140.84127824635607L150.016697164627,142.85304897565487L151.66079113449354,140.9363872548373L153.3048851043601,144.41144259352092L154.94897907422666,120.08425877122286L156.59307304409322,127.44504574964841L158.23716701395975,150.89116133093358L159.8812609838263,129.27485325025162L161.52535495369287,147.17328796855568L163.16944892355943,142.78186458445714L164.81354289342593,139.96062403127786L166.4576368632925,147.3725280082853L168.10173083315905,149.61011362840458L169.7458248030256,134.00428787519039L171.38991877289214,146.0801238316742L173.0340127427587,141.35297219719973L174.67810671262527,152.84717656770513L176.32220068249183,144.14851975113754L177.96629465235836,142.50502392110815L179.61038862222492,145.8725518124018L181.25448259209148,141.0394165560563L182.89857656195804,145.1318687719057L184.54267053182457,126.27273482449908L186.18676450169113,135.61635516026274L187.8308584715577,135.83535850576357L189.47495244142425,118.68523940775577L191.11904641129078,128.89508620738488L192.76314038115734,138.1094228515903L194.4072343510239,127.5200054959787L196.05132832089046,122.62562948825476L197.695422290757,119.93974734613752L199.33951626062355,118.44794874724496L200.98361023049011,117.62808850979653L202.62770420035667,131.94992393547753L204.2717981702232,116.53956052773083L205.91589214008977,119.16290837981518L207.55998610995633,108.62066658945317L209.2040800798229,130.04075912494483L210.84817404968942,116.30291546698245L212.49226801955598,120.12064159261779L214.13636198942254,124.34979721903431L215.7804559592891,138.23433237084504L217.4245499291556,133.74709590026347L219.06864389902216,122.62629380105378L220.71273786888872,132.60836551927935L222.35683183875528,132.84676960546741L224.00092580862182,163.88851258746013L225.64501977848838,164.83057480168134L227.28911374835494,162.78573345846448L228.9332077182215,162.3079732603517L230.57730168808803,163.89797553615196L232.2213956579546,165.67294565258572L233.86548962782115,166.36242397714093L235.5095835976877,169.0113127850444L237.15367756755424,167.43248920947858L238.7977715374208,163.93869978203634L240.44186550728736,166.5051015246402L242.08595947715392,165.17138013279774L243.73005344702045,166.20368830511572L245.374147416887,163.55121010288084L247.01824138675357,165.42621075641964L248.66233535662013,167.03005132278005L250.30642932648666,168.57615866255833L251.95052329635323,166.14666968261847L253.59461726621979,165.24189904163168L255.23871123608635,167.56092964482534L256.8828052059529,167.6534574238216L258.52689917581944,168.89613404481776L260.170993145686,164.44431667424658L261.81508711555256,165.27547022927857L263.45918108541906,167.80849961024936L265.1032750552856,166.77330378247223" style="fill: none;" fill="none"></path></g></g></g></g></g></g><g transform="translate(40, 178)" clip-path="url(#clip_1)"><clipPath id="clip_1"><rect width="290" height="22"></rect></clipPath><g><g><line x1="28.353743394502146" y1="0" x2="28.353743394502146" y2="5" style="visibility: inherit;" fill="rgb(0, 0, 0)" stroke="rgb(204, 204, 204)" stroke-width="1px"></line><line x1="61.23562279183319" y1="0" x2="61.23562279183319" y2="5" style="visibility: inherit;" fill="rgb(0, 0, 0)" stroke="rgb(204, 204, 204)" stroke-width="1px"></line><line x1="94.11750218916423" y1="0" x2="94.11750218916423" y2="5" style="visibility: inherit;" fill="rgb(0, 0, 0)" stroke="rgb(204, 204, 204)" stroke-width="1px"></line><line x1="126.99938158649525" y1="0" x2="126.99938158649525" y2="5" style="visibility: inherit;" fill="rgb(0, 0, 0)" stroke="rgb(204, 204, 204)" stroke-width="1px"></line><line x1="159.8812609838263" y1="0" x2="159.8812609838263" y2="5" style="visibility: inherit;" fill="rgb(0, 0, 0)" stroke="rgb(204, 204, 204)" stroke-width="1px"></line><line x1="192.76314038115734" y1="0" x2="192.76314038115734" y2="5" style="visibility: inherit;" fill="rgb(0, 0, 0)" stroke="rgb(204, 204, 204)" stroke-width="1px"></line><line x1="225.64501977848838" y1="0" x2="225.64501977848838" y2="5" style="visibility: inherit;" fill="rgb(0, 0, 0)" stroke="rgb(204, 204, 204)" stroke-width="1px"></line><line x1="258.52689917581944" y1="0" x2="258.52689917581944" y2="5" style="visibility: inherit;" fill="rgb(0, 0, 0)" stroke="rgb(204, 204, 204)" stroke-width="1px"></line></g><g transform="translate(0, 8)"><text x="28.353743394502146" y="0" dx="0em" dy="0.95em" style="text-anchor: middle; visibility: inherit; font-family: &quot;Helvetica Neue&quot;, sans-serif; font-size: 12px; font-weight: 200;" fill="rgb(50, 49, 63)" stroke="none" stroke-width="1px">-20</text><text x="61.23562279183319" y="0" dx="0em" dy="0.95em" style="text-anchor: middle; visibility: inherit; font-family: &quot;Helvetica Neue&quot;, sans-serif; font-size: 12px; font-weight: 200;" fill="rgb(50, 49, 63)" stroke="none" stroke-width="1px">0</text><text x="94.11750218916423" y="0" dx="0em" dy="0.95em" style="text-anchor: middle; visibility: inherit; font-family: &quot;Helvetica Neue&quot;, sans-serif; font-size: 12px; font-weight: 200;" fill="rgb(50, 49, 63)" stroke="none" stroke-width="1px">20</text><text x="126.99938158649525" y="0" dx="0em" dy="0.95em" style="text-anchor: middle; visibility: inherit; font-family: &quot;Helvetica Neue&quot;, sans-serif; font-size: 12px; font-weight: 200;" fill="rgb(50, 49, 63)" stroke="none" stroke-width="1px">40</text><text x="159.8812609838263" y="0" dx="0em" dy="0.95em" style="text-anchor: middle; visibility: inherit; font-family: &quot;Helvetica Neue&quot;, sans-serif; font-size: 12px; font-weight: 200;" fill="rgb(50, 49, 63)" stroke="none" stroke-width="1px">60</text><text x="192.76314038115734" y="0" dx="0em" dy="0.95em" style="text-anchor: middle; visibility: inherit; font-family: &quot;Helvetica Neue&quot;, sans-serif; font-size: 12px; font-weight: 200;" fill="rgb(50, 49, 63)" stroke="none" stroke-width="1px">80</text><text x="225.64501977848838" y="0" dx="0em" dy="0.95em" style="text-anchor: middle; visibility: inherit; font-family: &quot;Helvetica Neue&quot;, sans-serif; font-size: 12px; font-weight: 200;" fill="rgb(50, 49, 63)" stroke="none" stroke-width="1px">100</text><text x="258.52689917581944" y="0" dx="0em" dy="0.95em" style="text-anchor: middle; visibility: inherit; font-family: &quot;Helvetica Neue&quot;, sans-serif; font-size: 12px; font-weight: 200;" fill="rgb(50, 49, 63)" stroke="none" stroke-width="1px">120</text></g><line x1="0" y1="0" x2="290" y2="0" fill="rgb(0, 0, 0)" stroke="rgb(204, 204, 204)" stroke-width="1px"></line></g></g></g></g></svg>