<svg viewBox="0 0 330 200" xmlns="http://www.w3.org/2000/svg"><g><g><g><g><g><line x1="60" y1="178" x2="55" y2="178" style="visibility: inherit;" fill="rgb(0, 0, 0)" stroke="rgb(204, 204, 204)" stroke-width="1px"></line><line x1="60" y1="158.22222222222223" x2="55" y2="158.22222222222223" style="visibility: inherit;" fill="rgb(0, 0, 0)" stroke="rgb(204, 204, 204)" stroke-width="1px"></line><line x1="60" y1="138.44444444444446" x2="55" y2="138.44444444444446" style="visibility: inherit;" fill="rgb(0, 0, 0)" stroke="rgb(204, 204, 204)" stroke-width="1px"></line><line x1="60" y1="118.66666666666666" x2="55" y2="118.66666666666666" style="visibility: inherit;" fill="rgb(0, 0, 0)" stroke="rgb(204, 204, 204)" stroke-width="1px"></line><line x1="60" y1="98.88888888888889" x2="55" y2="98.88888888888889" style="visibility: inherit;" fill="rgb(0, 0, 0)" stroke="rgb(204, 204, 204)" stroke-width="1px"></line><line x1="60" y1="79.1111111111111" x2="55" y2="79.1111111111111" style="visibility: inherit;" fill="rgb(0, 0, 0)" stroke="rgb(204, 204, 204)" stroke-width="1px"></line><line x1="60" y1="59.33333333333334" x2="55" y2="59.33333333333334" style="visibility: inherit;" fill="rgb(0, 0, 0)" stroke="rgb(204, 204, 204)" stroke-width="1px"></line><line x1="60" y1="39.55555555555557" x2="55" y2="39.55555555555557" style="visibility: inherit;" fill="rgb(0, 0, 0)" stroke="rgb(204, 204, 204)" stroke-width="1px"></line><line x1="60" y1="19.7777777777778" x2="55" y2="19.7777777777778" style="visibility: inherit;" fill="rgb(0, 0, 0)" stroke="rgb(204, 204, 204)" stroke-width="1px"></line><line x1="60" y1="0" x2="55" y2="0" style="visibility: inherit;" fill="rgb(0, 0, 0)" stroke="rgb(204, 204, 204)" stroke-width="1px"></line></g><g transform="translate(50, 0)"><text x="0" y="178" dx="0em" dy="0.3em" style="text-anchor: end; visibility: hidden; font-family: &quot;Helvetica Neue&quot;, sans-serif; font-size: 12px; font-weight: 200;" fill="rgb(50, 49, 63)" stroke="none" stroke-width="1px">-0.05</text><text x="0" y="158.22222222222223" dx="0em" dy="0.3em" style="text-anchor: end; visibility: inherit; font-family: &quot;Helvetica Neue&quot;, sans-serif; font-size: 12px; font-weight: 200;" fill="rgb(50, 49, 63)" stroke="none" stroke-width="1px">0</text><text x="0" y="138.44444444444446" dx="0em" dy="0.3em" style="text-anchor: end; visibility: hidden; font-family: &quot;Helvetica Neue&quot;, sans-serif; font-size: 12px; font-weight: 200;" fill="rgb(50, 49, 63)" stroke="none" stroke-width="1px">0.05</text><text x="0" y="118.66666666666666" dx="0em" dy="0.3em" style="text-anchor: end; visibility: inherit; font-family: &quot;Helvetica Neue&quot;, sans-serif; font-size: 12px; font-weight: 200;" fill="rgb(50, 49, 63)" stroke="none" stroke-width="1px">0.1</text><text x="0" y="98.88888888888889" dx="0em" dy="0.3em" style="text-anchor: end; visibility: hidden; font-family: &quot;Helvetica Neue&quot;, sans-serif; font-size: 12px; font-weight: 200;" fill="rgb(50, 49, 63)" stroke="none" stroke-width="1px">0.15</text><text x="0" y="79.1111111111111" dx="0em" dy="0.3em" style="text-anchor: end; visibility: inherit; font-family: &quot;Helvetica Neue&quot;, sans-serif; font-size: 12px; font-weight: 200;" fill="rgb(50, 49, 63)" stroke="none" stroke-width="1px">0.2</text><text x="0" y="59.33333333333334" dx="0em" dy="0.3em" style="text-anchor: end; visibility: hidden; font-family: &quot;Helvetica Neue&quot;, sans-serif; font-size: 12px; font-weight: 200;" fill="rgb(50, 49, 63)" stroke="none" stroke-width="1px">0.25</text><text x="0" y="39.55555555555557" dx="0em" dy="0.3em" style="text-anchor: end; visibility: inherit; font-family: &quot;Helvetica Neue&quot;, sans-serif; font-size: 12px; font-weight: 200;" fill="rgb(50, 49, 63)" stroke="none" stroke-width="1px">0.3</text><text x="0" y="19.7777777777778" dx="0em" dy="0.3em" style="text-anchor: end; visibility: hidden; font-family: &quot;Helvetica Neue&quot;, sans-serif; font-size: 12px; font-weight: 200;" fill="rgb(50, 49, 63)" stroke="none" stroke-width="1px">0.35</text><text x="0" y="0" dx="0em" dy="0.3em" style="text-anchor: end; visibility: hidden; font-family: &quot;Helvetica Neue&quot;, sans-serif; font-size: 12px; font-weight: 200;" fill="rgb(50, 49, 63)" stroke="none" stroke-width="1px">0.4</text></g><line x1="60" y1="0" x2="60" y2="178" fill="rgb(0, 0, 0)" stroke="rgb(204, 204, 204)" stroke-width="1px"></line></g></g><g transform="translate(60, 0)" clip-path="url(#clip_0)"><clipPath id="clip_0"><rect width="270" height="178"></rect></clipPath><g><g><g><line x1="0" y1="0" x2="0" y2="178" fill="rgb(0, 0, 0)" stroke="rgb(60, 60, 60)" stroke-width="1px" opacity="0.25"></line><line x1="19.285714285714285" y1="0" x2="19.285714285714285" y2="178" fill="rgb(0, 0, 0)" stroke="rgb(60, 60, 60)" stroke-width="1px" opacity="0.25"></line><line x1="38.57142857142857" y1="0" x2="38.57142857142857" y2="178" fill="rgb(0, 0, 0)" stroke="rgb(60, 60, 60)" stroke-width="1px" opacity="0.25"></line><line x1="57.857142857142854" y1="0" x2="57.857142857142854" y2="178" fill="rgb(0, 0, 0)" stroke="rgb(60, 60, 60)" stroke-width="1px" opacity="0.25"></line><line x1="77.14285714285714" y1="0" x2="77.14285714285714" y2="178" fill="rgb(0, 0, 0)" stroke="rgb(60, 60, 60)" stroke-width="1px" opacity="0.25"></line><line x1="96.42857142857143" y1="0" x2="96.42857142857143" y2="178" fill="rgb(0, 0, 0)" stroke="rgb(60, 60, 60)" stroke-width="1px" opacity="0.25"></line><line x1="115.71428571428571" y1="0" x2="115.71428571428571" y2="178" fill="rgb(0, 0, 0)" stroke="rgb(60, 60, 60)" stroke-width="1px" opacity="0.25"></line><line x1="135" y1="0" x2="135" y2="178" fill="rgb(0, 0, 0)" stroke="rgb(60, 60, 60)" stroke-width="1px" opacity="0.25"></line><line x1="154.28571428571428" y1="0" x2="154.28571428571428" y2="178" fill="rgb(0, 0, 0)" stroke="rgb(60, 60, 60)" stroke-width="1px" opacity="0.25"></line><line x1="173.57142857142858" y1="0" x2="173.57142857142858" y2="178" fill="rgb(0, 0, 0)" stroke="rgb(60, 60, 60)" stroke-width="1px" opacity="0.25"></line><line x1="192.85714285714286" y1="0" x2="192.85714285714286" y2="178" fill="rgb(0, 0, 0)" stroke="rgb(60, 60, 60)" stroke-width="1px" opacity="0.25"></line><line x1="212.14285714285714" y1="0" x2="212.14285714285714" y2="178" fill="rgb(0, 0, 0)" stroke="rgb(60, 60, 60)" stroke-width="1px" opacity="0.25"></line><line x1="231.42857142857142" y1="0" x2="231.42857142857142" y2="178" fill="rgb(0, 0, 0)" stroke="rgb(60, 60, 60)" stroke-width="1px" opacity="0.25"></line><line x1="250.71428571428572" y1="0" x2="250.71428571428572" y2="178" fill="rgb(0, 0, 0)" stroke="rgb(60, 60, 60)" stroke-width="1px" opacity="0.25"></line><line x1="270" y1="0" x2="270" y2="178" fill="rgb(0, 0, 0)" stroke="rgb(60, 60, 60)" stroke-width="1px" opacity="0.25"></line></g><g><line x1="0" y1="178" x2="270" y2="178" fill="rgb(0, 0, 0)" stroke="rgb(60, 60, 60)" stroke-width="1px" opacity="0.25"></line><line x1="0" y1="158.22222222222223" x2="270" y2="158.22222222222223" fill="rgb(0, 0, 0)" stroke="rgb(60, 60, 60)" stroke-width="1px" opacity="0.25"></line><line x1="0" y1="138.44444444444446" x2="270" y2="138.44444444444446" fill="rgb(0, 0, 0)" stroke="rgb(60, 60, 60)" stroke-width="1px" opacity="0.25"></line><line x1="0" y1="118.66666666666666" x2="270" y2="118.66666666666666" fill="rgb(0, 0, 0)" stroke="rgb(60, 60, 60)" stroke-width="1px" opacity="0.25"></line><line x1="0" y1="98.88888888888889" x2="270" y2="98.88888888888889" fill="rgb(0, 0, 0)" stroke="rgb(60, 60, 60)" stroke-width="1px" opacity="0.25"></line><line x1="0" y1="79.1111111111111" x2="270" y2="79.1111111111111" fill="rgb(0, 0, 0)" stroke="rgb(60, 60, 60)" stroke-width="1px" opacity="0.25"></line><line x1="0" y1="59.33333333333334" x2="270" y2="59.33333333333334" fill="rgb(0, 0, 0)" stroke="rgb(60, 60, 60)" stroke-width="1px" opacity="0.25"></line><line x1="0" y1="39.55555555555557" x2="270" y2="39.55555555555557" fill="rgb(0, 0, 0)" stroke="rgb(60, 60, 60)" stroke-width="1px" opacity="0.25"></line><line x1="0" y1="19.7777777777778" x2="270" y2="19.7777777777778" fill="rgb(0, 0, 0)" stroke="rgb(60, 60, 60)" stroke-width="1px" opacity="0.25"></line><line x1="0" y1="0" x2="270" y2="0" fill="rgb(0, 0, 0)" stroke="rgb(60, 60, 60)" stroke-width="1px" opacity="0.25"></line></g></g></g><g><g><line x1="0" y1="158.22222222222223" x2="270" y2="158.22222222222223" fill="rgb(0, 0, 0)" stroke="rgb(153, 153, 153)" stroke-width="1.5px"></line></g></g><g><g><line x1="19.285714285714285" y1="0" x2="19.285714285714285" y2="178" fill="rgb(0, 0, 0)" stroke="rgb(153, 153, 153)" stroke-width="1.5px"></line></g></g><g><g><g><g><g><path stroke="rgb(51, 187, 238)" stroke-width="2px" d="M27,-17.11997974890491L28.928571428571427,20.455584180566348L30.857142857142858,40.287736478558344L32.785714285714285,42.64662925922315L34.71428571428571,48.15305562039978L36.64285714285714,75.46593183224103L38.57142857142857,82.69257314950733L40.5,88.08498071389312L42.42857142857143,82.35714229859715L44.357142857142854,92.91430813502149L46.285714285714285,102.28988138714209L48.214285714285715,105.24076443539384L50.142857142857146,109.59469592959464L52.07142857142858,110.00849081352543L54,119.01136813718634L55.92857142857143,115.01824266007696L57.857142857142854,121.32768786265072L59.785714285714285,118.4690109947476L61.714285714285715,127.1225352224428L63.64285714285714,120.57153372482978L65.57142857142857,125.61757358871483L67.5,127.75675198935167L69.42857142857142,134.03551693283524L71.35714285714286,123.77609980281852L73.28571428571428,131.45914714207848L75.21428571428572,135.30512935973832L77.14285714285714,139.52542250340872L79.07142857142857,139.84630938333459L81,139.8994592848698L82.92857142857143,141.77430864122482L84.85714285714286,145.0308811856998L86.78571428571429,142.95602074670654L88.71428571428571,143.31494940785885L90.64285714285714,144.27179986409325L92.57142857142857,145.1174599968014L94.5,145.22999405865056L96.42857142857143,144.95244404720034L98.35714285714285,147.19445905225146L100.28571428571429,145.731026944579L102.21428571428571,146.70971867548838L104.14285714285715,148.34045652232084L106.07142857142857,149.10214956548833L108,149.6738731394579L109.92857142857143,146.70116845345L111.85714285714286,145.9833315731187L113.78571428571429,148.0408863497602L115.71428571428571,148.90828486983034L117.64285714285714,149.5225369541772L119.57142857142857,146.72231657690216L121.5,148.23560007842386L123.42857142857143,148.2722622433557L125.35714285714286,148.04252080197648L127.28571428571428,147.50747597196332L129.21428571428572,149.63571825279666L131.14285714285714,149.49081272144107L133.07142857142858,149.80192462161577L135,149.76063125795693L136.92857142857142,149.01699879911152L138.85714285714283,149.43937995587422L140.7857142857143,148.03015370368405L142.71428571428572,147.58941765215332L144.64285714285714,149.45624300425385L146.57142857142856,147.06343995416574L148.5,148.08154052029698L150.42857142857144,149.02884538688647L152.35714285714286,149.27076331275404L154.28571428571428,149.68813705078713L156.21428571428572,149.3491349317548L158.14285714285714,150.8160564196193L160.07142857142858,149.94428702943028L162,151.32545800657573L163.92857142857142,151.1735151482049L165.85714285714286,151.5150041186267L167.78571428571428,150.00278599282825L169.71428571428572,151.09914354879757L171.64285714285714,150.36670353518056L173.57142857142858,149.42990885148788L175.5,149.409142566875L177.42857142857142,149.0465621655781L179.35714285714286,148.89902862012644L181.28571428571428,149.35112497204034L183.21428571428572,147.01323566499116L185.14285714285714,150.00360047152628L187.07142857142856,149.92759708164726L189,147.04304164541253L190.92857142857144,148.56967068978972L192.85714285714286,148.03764890725046L194.78571428571428,149.9669414068935L196.7142857142857,151.20009075172146L198.64285714285717,149.18744708174242L200.57142857142858,149.09293362277347L202.5,150.02277407050025L204.42857142857142,148.48623928626313L206.35714285714283,147.72870338347184L208.2857142857143,148.42058826385582L210.21428571428572,149.57668020068792L212.14285714285714,149.4334208896774L214.07142857142856,150.0217241775934L216,151.11738385549847L217.92857142857144,151.13201900132827L219.85714285714286,151.6747045055197L221.78571428571428,149.5742563666006L223.71428571428572,150.13270090321635L225.64285714285714,151.4069306080205L227.57142857142858,151.73046662159737L229.5,152.96901727698366L231.42857142857142,152.9876040275488L233.35714285714286,151.98578560551235L235.28571428571428,151.69986766166295L237.21428571428572,152.75542058069257L239.14285714285714,151.84257767840805L241.07142857142858,152.7709259465014L243,153.86228492837532L244.92857142857142,152.9086028005232L246.85714285714286,152.15720724258122L248.78571428571428,152.7575121963949L250.71428571428572,153.0822268916791L252.64285714285714,153.3161174074983L254.57142857142856,153.83793720401377L256.5,152.4728780389981L258.42857142857144,151.80760992374954" style="fill: none;" fill="none"></path></g><g><path stroke="rgb(204, 51, 17)" stroke-width="2px" d="M27,-17.54165132728329L28.928571428571427,13.195913114337458L30.857142857142858,40.93400150086103L32.785714285714285,44.91072525877246L34.71428571428571,43.123061435343175L36.64285714285714,59.98449650205232L38.57142857142857,80.4920930729646L40.5,86.55955259512051L42.42857142857143,95.78024169215927L44.357142857142854,88.93434628551036L46.285714285714285,94.01360551956476L48.214285714285715,101.30065474816998L50.142857142857146,103.53282429642165L52.07142857142858,106.33644080990757L54,109.050775060424L55.92857142857143,106.41384697079681L57.857142857142854,111.40663696705633L59.785714285714285,111.7039945431295L61.714285714285715,115.6958725326287L63.64285714285714,111.70642916178512L65.57142857142857,120.43197214445324L67.5,125.84960114210381L69.42857142857142,129.9539914662622L71.35714285714286,128.47562871332616L73.28571428571428,127.70003516283222L75.21428571428572,128.06747144322486L77.14285714285714,131.86365252671703L79.07142857142857,133.6571339136815L81,135.82430670343558L82.92857142857143,139.00449535629835L84.85714285714286,140.88415877502877L86.78571428571429,141.77442376361998L88.71428571428571,142.4874693112794L90.64285714285714,140.0658780062019L92.57142857142857,141.79268673191652L94.5,143.94361563292685L96.42857142857143,140.68639181849903L98.35714285714285,143.44105402508018L100.28571428571429,144.67282333999526L102.21428571428571,146.78511485644142L104.14285714285715,148.5055556052007L106.07142857142857,147.91793693418083L108,146.55080779377337L109.92857142857143,146.8905303159455L111.85714285714286,145.9642753078541L113.78571428571429,147.6526198669809L115.71428571428571,149.34392243995984L117.64285714285714,150.70763589400613L119.57142857142857,150.78149535200814L121.5,150.48577425710087L123.42857142857143,151.07918079130258L125.35714285714286,150.90423027998312L127.28571428571428,151.0554258750114L129.21428571428572,146.2705758951505L131.14285714285714,146.53026645568744L133.07142857142858,149.2707314608427L135,147.81608731389963L136.92857142857142,150.04626182289147L138.85714285714283,150.9462537792928L140.7857142857143,151.33849310178533L142.71428571428572,151.7447439310887L144.64285714285714,151.8806574454006L146.57142857142856,151.14952980472557L148.5,151.2223002989724L150.42857142857144,151.24570970215208L152.35714285714286,152.27840417709632L154.28571428571428,152.43929626066165L156.21428571428572,151.7983380818818L158.14285714285714,151.72167929927565L160.07142857142858,151.275034167555L162,151.4179529232239L163.92857142857142,151.5978976219369L165.85714285714286,152.46308941818117L167.78571428571428,152.92776473269964L169.71428571428572,152.65755209138322L171.64285714285714,152.2784555761635L173.57142857142858,152.724321273483L175.5,152.2702574297888L177.42857142857142,151.8677722128625L179.35714285714286,151.12443542156984L181.28571428571428,151.4533156898746L183.21428571428572,151.580986051587L185.14285714285714,152.4078416893515L187.07142857142856,151.50219305837618L189,151.2158674739203L190.92857142857144,148.8420443818411L192.85714285714286,149.87044897257599L194.78571428571428,149.61254026837733L196.7142857142857,149.72869742454972L198.64285714285717,150.53409654092587L200.57142857142858,151.90270803850638L202.5,152.29945464818724L204.42857142857142,151.9706641475369L206.35714285714283,152.65689001255623L208.2857142857143,153.00264750451547L210.21428571428572,152.65891951109057L212.14285714285714,153.1730435123482L214.07142857142856,152.6631055975884L216,152.8176012399751L217.92857142857144,152.87474208220257L219.85714285714286,153.17877443253977L221.78571428571428,153.4859577487441L223.71428571428572,154.3130902888695L225.64285714285714,154.38621987952706L227.57142857142858,154.09223760597257L229.5,154.20459468655528L231.42857142857142,154.25968629547933L233.35714285714286,154.05251042899874L235.28571428571428,154.0792635962145L237.21428571428572,154.1278384232719L239.14285714285714,154.35121994573404L241.07142857142858,154.97483583339505L243,154.52801977391778L244.92857142857142,154.49024008490088L246.85714285714286,154.59867616626752L248.78571428571428,154.78782977806077L250.71428571428572,155.27612513556673L252.64285714285714,155.036816196171L254.57142857142856,154.5463087097637L256.5,154.71759427933222L258.42857142857144,154.57990123009347" style="fill: none;" fill="none"></path></g></g></g></g><g opacity="0.2"><g><g><g><path stroke="rgb(51, 187, 238)" stroke-width="2px" d="M21.214285714285715,-134.22865030500628L23.142857142857142,10.545483324262847L25.071428571428573,-12.442890114254425L27,9.81846454408435L28.928571428571427,72.43611629803976L30.857142857142858,68.64803157912361L32.785714285714285,46.08591757880319L34.71428571428571,56.27396493487889L36.64285714285714,116.02236985498004L38.57142857142857,93.46699002054002L40.5,96.14424681663515L42.42857142857143,73.78408706188202L44.357142857142854,108.72937430275812L46.285714285714285,116.34222063091067L48.214285714285715,109.66500781642067L50.142857142857146,116.12375073300468L52.07142857142858,110.62907807694542L54,132.51431262493134L55.92857142857143,109.02891943189833L57.857142857142854,130.79150964154138L59.785714285714285,114.18108975887299L61.714285714285715,140.10265071524515L63.64285714285714,110.74510908126832L65.57142857142857,133.18659751945071L67.5,130.96551046768826L69.42857142857142,143.45364828242197L71.35714285714286,108.38698985841539L73.28571428571428,142.98371107379594L75.21428571428572,141.07410056061215L77.14285714285714,145.85586081941923L79.07142857142857,140.3276396393776L81,139.97918413082758L82.92857142857143,144.58658254146576L84.85714285714286,149.91573986245527L86.78571428571429,139.8437301417192L88.71428571428571,143.85334239403406L90.64285714285714,145.70707553956242L92.57142857142857,146.38595019115343L94.5,145.39879515104823L96.42857142857143,144.53611903058157L98.35714285714285,150.5574815571308L100.28571428571429,143.5358787841267L102.21428571428571,148.17775627142854L104.14285714285715,150.78656329214573L106.07142857142857,150.2446891301208L108,150.53145850035878L109.92857142857143,142.24211142460504L111.85714285714286,144.90657625264592L113.78571428571429,151.12721851468086L115.71428571428571,150.20938264992503L117.64285714285714,150.44391508069305L119.57142857142857,142.5219860110018L121.5,150.50552533070245L123.42857142857143,148.32725549075337L125.35714285714286,147.69790863990784L127.28571428571428,146.70490872694387L129.21428571428572,152.828081674046L131.14285714285714,149.27345442440776L133.07142857142858,150.26859247187772L135,149.69869121246867L136.92857142857142,147.90155011084346L138.85714285714283,150.0729516910182L140.7857142857143,145.91631432539887L142.71428571428572,146.92831357485719L144.64285714285714,152.25648103240462L146.57142857142856,143.47423537903362L148.5,149.6086913694938L150.42857142857144,150.44980268677077L152.35714285714286,149.63364020155535L154.28571428571428,150.31419765783681L156.21428571428572,148.84063175320625L158.14285714285714,153.01643865141602L160.07142857142858,148.63663294414678L162,153.39721447229385L163.92857142857142,150.94560086064868L165.85714285714286,152.02723757425943L167.78571428571428,147.73445880413055L169.71428571428572,152.74367988275156L171.64285714285714,149.26804351475505L173.57142857142858,148.02471682594881L175.5,149.37799313995572L177.42857142857142,148.50269156363277L179.35714285714286,148.67772830194897L181.28571428571428,150.0292694999112L183.21428571428572,143.50640170441733L185.14285714285714,154.48914768132897L187.07142857142856,149.8135919968287L189,142.71620849106046L190.92857142857144,150.85961425635548L192.85714285714286,147.23961623344155L194.78571428571428,152.8608801563581L196.7142857142857,153.0498147689634L198.64285714285717,146.16848157677384L200.57142857142858,148.95116343432002L202.5,151.41753474209042L204.42857142857142,146.18143710990748L206.35714285714283,146.5923995292849L208.2857142857143,149.45841558443175L210.21428571428572,151.31081810593605L212.14285714285714,149.2185319231616L214.07142857142856,150.9041791094674L216,152.7608733723561L217.92857142857144,151.15397172007295L219.85714285714286,152.48873276180692L221.78571428571428,146.42358415822187L223.71428571428572,150.97036770813995L225.64285714285714,153.31827516522674L227.57142857142858,152.21577064196268L229.5,154.82684326006307L231.42857142857142,153.01548415339656L233.35714285714286,150.4830579724577L235.28571428571428,151.2709907458888L237.21428571428572,154.33874995923705L239.14285714285714,150.47331332498126L241.07142857142858,154.1634483486414L243,155.4993234011862L244.92857142857142,151.47807960874505L246.85714285714286,151.03011390566826L248.78571428571428,153.65796962711545L250.71428571428572,153.5692989346054L252.64285714285714,153.66695318122706L254.57142857142856,154.62066689878702L256.5,150.42528929147454L258.42857142857144,150.80970775087675" style="fill: none;" fill="none"></path></g><g><path stroke="rgb(204, 51, 17)" stroke-width="2px" d="M25.071428571428573,-24.413142575158048L27,54.53298412428963L28.928571428571427,55.71703026029799L30.857142857142858,80.59991170300378L32.785714285714285,50.70882667435541L34.71428571428571,40.48660453160605L36.64285714285714,85.02176247702705L38.57142857142857,111.0674855377939L40.5,95.62772303157384L42.42857142857143,109.58116818798914L44.357142857142854,78.67891499731276L46.285714285714285,101.62652389208476L48.214285714285715,112.22608919938406L50.142857142857146,106.880134039455L52.07142857142858,110.54115374220743L54,113.12186293469536L55.92857142857143,102.45869586202834L57.857142857142854,118.8955481449763L59.785714285714285,112.15002112256157L61.714285714285715,121.68361070421008L63.64285714285714,105.72231136427986L65.57142857142857,133.52022460103035L67.5,133.97602153486676L69.42857142857142,136.1105664504899L71.35714285714286,126.25808685355716L73.28571428571428,126.53664555152258L75.21428571428572,128.61862566073734L77.14285714285714,137.5579228931003L79.07142857142857,136.34735563728543L81,139.0750656293498L82.92857142857143,143.77477810780206L84.85714285714286,143.70365382234255L86.78571428571429,143.10982122355037L88.71428571428571,143.55703762173653L90.64285714285714,136.43349107106528L92.57142857142857,144.3828998108705L94.5,147.17000897725424L96.42857142857143,135.80055610338846L98.35714285714285,147.5730473316378L100.28571428571429,146.52047731147871L102.21428571428571,149.95355213019582L104.14285714285715,151.08621672789255L106.07142857142857,147.03650892774263L108,144.5001140832901L109.92857142857143,147.40011409918466L111.85714285714286,144.57489279574818L113.78571428571429,150.18513670563698L115.71428571428571,151.88087629940776L117.64285714285714,152.75320607506566L119.57142857142857,150.8922845390108L121.5,150.0421926147408L123.42857142857143,151.9692905926042L125.35714285714286,150.6418045130041L127.28571428571428,151.28221926755376L129.21428571428572,139.09330092536078L131.14285714285714,146.91980229649278L133.07142857142858,153.38142896857528L135,145.63412109348508L136.92857142857142,153.39152358637915L138.85714285714283,152.29624171389474L140.7857142857143,151.92685208552413L142.71428571428572,152.35412017504373L144.64285714285714,152.08452771686845L146.57142857142856,150.052838343713L148.5,151.33145604034266L150.42857142857144,151.28082380692163L152.35714285714286,153.8274458895127L154.28571428571428,152.68063438600964L156.21428571428572,150.83690081371202L158.14285714285714,151.6066911253664L160.07142857142858,150.605066469974L162,151.6323310567273L163.92857142857142,151.86781467000642L165.85714285714286,153.76087711254755L167.78571428571428,153.6247777044773L169.71428571428572,152.25223312940864L171.64285714285714,151.7098108033339L173.57142857142858,153.3931198194623L175.5,151.5891616642475L177.42857142857142,151.264044387473L179.35714285714286,150.0094302346309L181.28571428571428,151.9466360923317L183.21428571428572,151.77249159415564L185.14285714285714,153.64812514599828L187.07142857142856,150.14372011191315L189,150.78637909723653L190.92857142857144,145.2813097437223L192.85714285714286,151.4130558586783L194.78571428571428,149.22567721207938L196.7142857142857,149.90293315880828L198.64285714285717,151.74219521549014L200.57142857142858,153.9556252848771L202.5,152.89457456270853L204.42857142857142,151.47747839656142L206.35714285714283,153.6862288100852L208.2857142857143,153.52128374245433L210.21428571428572,152.14332752095328L212.14285714285714,153.9442295142346L214.07142857142856,151.8981987254487L216,153.0493447035551L217.92857142857144,152.9604533455438L219.85714285714286,153.63482295804553L221.78571428571428,153.94673272305064L223.71428571428572,155.55378909905752L225.64285714285714,154.49591426551342L227.57142857142858,153.6512641956409L229.5,154.37313030742936L231.42857142857142,154.34232370886537L233.35714285714286,153.74174662927786L235.28571428571428,154.11939334703817L237.21428571428572,154.200700663858L239.14285714285714,154.68629222942724L241.07142857142858,155.91025966488652L243,153.85779568470187L244.92857142857142,154.43357055137554L246.85714285714286,154.76133028831748L248.78571428571428,155.07156019575066L250.71428571428572,156.0085681718257L252.64285714285714,154.67785278707743L254.57142857142856,153.8105474801527L256.5,154.974522633685L258.42857142857144,154.37336165623532" style="fill: none;" fill="none"></path></g></g></g></g></g></g><g transform="translate(60, 178)" clip-path="url(#clip_1)"><clipPath id="clip_1"><rect width="270" height="22"></rect></clipPath><g><g><line x1="0" y1="0" x2="0" y2="5" style="visibility: inherit;" fill="rgb(0, 0, 0)" stroke="rgb(204, 204, 204)" stroke-width="1px"></line><line x1="19.285714285714285" y1="0" x2="19.285714285714285" y2="5" style="visibility: inherit;" fill="rgb(0, 0, 0)" stroke="rgb(204, 204, 204)" stroke-width="1px"></line><line x1="38.57142857142857" y1="0" x2="38.57142857142857" y2="5" style="visibility: inherit;" fill="rgb(0, 0, 0)" stroke="rgb(204, 204, 204)" stroke-width="1px"></line><line x1="57.857142857142854" y1="0" x2="57.857142857142854" y2="5" style="visibility: inherit;" fill="rgb(0, 0, 0)" stroke="rgb(204, 204, 204)" stroke-width="1px"></line><line x1="77.14285714285714" y1="0" x2="77.14285714285714" y2="5" style="visibility: inherit;" fill="rgb(0, 0, 0)" stroke="rgb(204, 204, 204)" stroke-width="1px"></line><line x1="96.42857142857143" y1="0" x2="96.42857142857143" y2="5" style="visibility: inherit;" fill="rgb(0, 0, 0)" stroke="rgb(204, 204, 204)" stroke-width="1px"></line><line x1="115.71428571428571" y1="0" x2="115.71428571428571" y2="5" style="visibility: inherit;" fill="rgb(0, 0, 0)" stroke="rgb(204, 204, 204)" stroke-width="1px"></line><line x1="135" y1="0" x2="135" y2="5" style="visibility: inherit;" fill="rgb(0, 0, 0)" stroke="rgb(204, 204, 204)" stroke-width="1px"></line><line x1="154.28571428571428" y1="0" x2="154.28571428571428" y2="5" style="visibility: inherit;" fill="rgb(0, 0, 0)" stroke="rgb(204, 204, 204)" stroke-width="1px"></line><line x1="173.57142857142858" y1="0" x2="173.57142857142858" y2="5" style="visibility: inherit;" fill="rgb(0, 0, 0)" stroke="rgb(204, 204, 204)" stroke-width="1px"></line><line x1="192.85714285714286" y1="0" x2="192.85714285714286" y2="5" style="visibility: inherit;" fill="rgb(0, 0, 0)" stroke="rgb(204, 204, 204)" stroke-width="1px"></line><line x1="212.14285714285714" y1="0" x2="212.14285714285714" y2="5" style="visibility: inherit;" fill="rgb(0, 0, 0)" stroke="rgb(204, 204, 204)" stroke-width="1px"></line><line x1="231.42857142857142" y1="0" x2="231.42857142857142" y2="5" style="visibility: inherit;" fill="rgb(0, 0, 0)" stroke="rgb(204, 204, 204)" stroke-width="1px"></line><line x1="250.71428571428572" y1="0" x2="250.71428571428572" y2="5" style="visibility: inherit;" fill="rgb(0, 0, 0)" stroke="rgb(204, 204, 204)" stroke-width="1px"></line><line x1="270" y1="0" x2="270" y2="5" style="visibility: inherit;" fill="rgb(0, 0, 0)" stroke="rgb(204, 204, 204)" stroke-width="1px"></line></g><g transform="translate(0, 8)"><text x="0" y="0" dx="0em" dy="0.95em" style="text-anchor: middle; visibility: hidden; font-family: &quot;Helvetica Neue&quot;, sans-serif; font-size: 12px; font-weight: 200;" fill="rgb(50, 49, 63)" stroke="none" stroke-width="1px">-10</text><text x="19.285714285714285" y="0" dx="0em" dy="0.95em" style="text-anchor: middle; visibility: inherit; font-family: &quot;Helvetica Neue&quot;, sans-serif; font-size: 12px; font-weight: 200;" fill="rgb(50, 49, 63)" stroke="none" stroke-width="1px">0</text><text x="38.57142857142857" y="0" dx="0em" dy="0.95em" style="text-anchor: middle; visibility: hidden; font-family: &quot;Helvetica Neue&quot;, sans-serif; font-size: 12px; font-weight: 200;" fill="rgb(50, 49, 63)" stroke="none" stroke-width="1px">10</text><text x="57.857142857142854" y="0" dx="0em" dy="0.95em" style="text-anchor: middle; visibility: inherit; font-family: &quot;Helvetica Neue&quot;, sans-serif; font-size: 12px; font-weight: 200;" fill="rgb(50, 49, 63)" stroke="none" stroke-width="1px">20</text><text x="77.14285714285714" y="0" dx="0em" dy="0.95em" style="text-anchor: middle; visibility: hidden; font-family: &quot;Helvetica Neue&quot;, sans-serif; font-size: 12px; font-weight: 200;" fill="rgb(50, 49, 63)" stroke="none" stroke-width="1px">30</text><text x="96.42857142857143" y="0" dx="0em" dy="0.95em" style="text-anchor: middle; visibility: inherit; font-family: &quot;Helvetica Neue&quot;, sans-serif; font-size: 12px; font-weight: 200;" fill="rgb(50, 49, 63)" stroke="none" stroke-width="1px">40</text><text x="115.71428571428571" y="0" dx="0em" dy="0.95em" style="text-anchor: middle; visibility: hidden; font-family: &quot;Helvetica Neue&quot;, sans-serif; font-size: 12px; font-weight: 200;" fill="rgb(50, 49, 63)" stroke="none" stroke-width="1px">50</text><text x="135" y="0" dx="0em" dy="0.95em" style="text-anchor: middle; visibility: inherit; font-family: &quot;Helvetica Neue&quot;, sans-serif; font-size: 12px; font-weight: 200;" fill="rgb(50, 49, 63)" stroke="none" stroke-width="1px">60</text><text x="154.28571428571428" y="0" dx="0em" dy="0.95em" style="text-anchor: middle; visibility: hidden; font-family: &quot;Helvetica Neue&quot;, sans-serif; font-size: 12px; font-weight: 200;" fill="rgb(50, 49, 63)" stroke="none" stroke-width="1px">70</text><text x="173.57142857142858" y="0" dx="0em" dy="0.95em" style="text-anchor: middle; visibility: inherit; font-family: &quot;Helvetica Neue&quot;, sans-serif; font-size: 12px; font-weight: 200;" fill="rgb(50, 49, 63)" stroke="none" stroke-width="1px">80</text><text x="192.85714285714286" y="0" dx="0em" dy="0.95em" style="text-anchor: middle; visibility: hidden; font-family: &quot;Helvetica Neue&quot;, sans-serif; font-size: 12px; font-weight: 200;" fill="rgb(50, 49, 63)" stroke="none" stroke-width="1px">90</text><text x="212.14285714285714" y="0" dx="0em" dy="0.95em" style="text-anchor: middle; visibility: inherit; font-family: &quot;Helvetica Neue&quot;, sans-serif; font-size: 12px; font-weight: 200;" fill="rgb(50, 49, 63)" stroke="none" stroke-width="1px">100</text><text x="231.42857142857142" y="0" dx="0em" dy="0.95em" style="text-anchor: middle; visibility: hidden; font-family: &quot;Helvetica Neue&quot;, sans-serif; font-size: 12px; font-weight: 200;" fill="rgb(50, 49, 63)" stroke="none" stroke-width="1px">110</text><text x="250.71428571428572" y="0" dx="0em" dy="0.95em" style="text-anchor: middle; visibility: inherit; font-family: &quot;Helvetica Neue&quot;, sans-serif; font-size: 12px; font-weight: 200;" fill="rgb(50, 49, 63)" stroke="none" stroke-width="1px">120</text><text x="270" y="0" dx="0em" dy="0.95em" style="text-anchor: middle; visibility: hidden; font-family: &quot;Helvetica Neue&quot;, sans-serif; font-size: 12px; font-weight: 200;" fill="rgb(50, 49, 63)" stroke="none" stroke-width="1px">130</text></g><line x1="0" y1="0" x2="270" y2="0" fill="rgb(0, 0, 0)" stroke="rgb(204, 204, 204)" stroke-width="1px"></line></g></g></g></g></svg>