<svg viewBox="0 0 330 200" xmlns="http://www.w3.org/2000/svg"><g><g><g><g><g><line x1="50" y1="178" x2="45" y2="178" style="visibility: inherit;" fill="rgb(0, 0, 0)" stroke="rgb(204, 204, 204)" stroke-width="1px"></line><line x1="50" y1="161.8181818181818" x2="45" y2="161.8181818181818" style="visibility: inherit;" fill="rgb(0, 0, 0)" stroke="rgb(204, 204, 204)" stroke-width="1px"></line><line x1="50" y1="145.63636363636363" x2="45" y2="145.63636363636363" style="visibility: inherit;" fill="rgb(0, 0, 0)" stroke="rgb(204, 204, 204)" stroke-width="1px"></line><line x1="50" y1="129.45454545454547" x2="45" y2="129.45454545454547" style="visibility: inherit;" fill="rgb(0, 0, 0)" stroke="rgb(204, 204, 204)" stroke-width="1px"></line><line x1="50" y1="113.27272727272728" x2="45" y2="113.27272727272728" style="visibility: inherit;" fill="rgb(0, 0, 0)" stroke="rgb(204, 204, 204)" stroke-width="1px"></line><line x1="50" y1="97.09090909090908" x2="45" y2="97.09090909090908" style="visibility: inherit;" fill="rgb(0, 0, 0)" stroke="rgb(204, 204, 204)" stroke-width="1px"></line><line x1="50" y1="80.90909090909092" x2="45" y2="80.90909090909092" style="visibility: inherit;" fill="rgb(0, 0, 0)" stroke="rgb(204, 204, 204)" stroke-width="1px"></line><line x1="50" y1="64.72727272727275" x2="45" y2="64.72727272727275" style="visibility: inherit;" fill="rgb(0, 0, 0)" stroke="rgb(204, 204, 204)" stroke-width="1px"></line><line x1="50" y1="48.54545454545453" x2="45" y2="48.54545454545453" style="visibility: inherit;" fill="rgb(0, 0, 0)" stroke="rgb(204, 204, 204)" stroke-width="1px"></line><line x1="50" y1="32.363636363636346" x2="45" y2="32.363636363636346" style="visibility: inherit;" fill="rgb(0, 0, 0)" stroke="rgb(204, 204, 204)" stroke-width="1px"></line><line x1="50" y1="16.181818181818187" x2="45" y2="16.181818181818187" style="visibility: inherit;" fill="rgb(0, 0, 0)" stroke="rgb(204, 204, 204)" stroke-width="1px"></line><line x1="50" y1="0" x2="45" y2="0" style="visibility: inherit;" fill="rgb(0, 0, 0)" stroke="rgb(204, 204, 204)" stroke-width="1px"></line></g><g transform="translate(40, 0)"><text x="0" y="178" dx="0em" dy="0.3em" style="text-anchor: end; visibility: hidden; font-family: &quot;Helvetica Neue&quot;, sans-serif; font-size: 12px; font-weight: 200;" fill="rgb(50, 49, 63)" stroke="none" stroke-width="1px">0.05</text><text x="0" y="161.8181818181818" dx="0em" dy="0.3em" style="text-anchor: end; visibility: inherit; font-family: &quot;Helvetica Neue&quot;, sans-serif; font-size: 12px; font-weight: 200;" fill="rgb(50, 49, 63)" stroke="none" stroke-width="1px">0.06</text><text x="0" y="145.63636363636363" dx="0em" dy="0.3em" style="text-anchor: end; visibility: hidden; font-family: &quot;Helvetica Neue&quot;, sans-serif; font-size: 12px; font-weight: 200;" fill="rgb(50, 49, 63)" stroke="none" stroke-width="1px">0.07</text><text x="0" y="129.45454545454547" dx="0em" dy="0.3em" style="text-anchor: end; visibility: inherit; font-family: &quot;Helvetica Neue&quot;, sans-serif; font-size: 12px; font-weight: 200;" fill="rgb(50, 49, 63)" stroke="none" stroke-width="1px">0.08</text><text x="0" y="113.27272727272728" dx="0em" dy="0.3em" style="text-anchor: end; visibility: hidden; font-family: &quot;Helvetica Neue&quot;, sans-serif; font-size: 12px; font-weight: 200;" fill="rgb(50, 49, 63)" stroke="none" stroke-width="1px">0.09</text><text x="0" y="97.09090909090908" dx="0em" dy="0.3em" style="text-anchor: end; visibility: inherit; font-family: &quot;Helvetica Neue&quot;, sans-serif; font-size: 12px; font-weight: 200;" fill="rgb(50, 49, 63)" stroke="none" stroke-width="1px">0.1</text><text x="0" y="80.90909090909092" dx="0em" dy="0.3em" style="text-anchor: end; visibility: hidden; font-family: &quot;Helvetica Neue&quot;, sans-serif; font-size: 12px; font-weight: 200;" fill="rgb(50, 49, 63)" stroke="none" stroke-width="1px">0.11</text><text x="0" y="64.72727272727275" dx="0em" dy="0.3em" style="text-anchor: end; visibility: inherit; font-family: &quot;Helvetica Neue&quot;, sans-serif; font-size: 12px; font-weight: 200;" fill="rgb(50, 49, 63)" stroke="none" stroke-width="1px">0.12</text><text x="0" y="48.54545454545453" dx="0em" dy="0.3em" style="text-anchor: end; visibility: hidden; font-family: &quot;Helvetica Neue&quot;, sans-serif; font-size: 12px; font-weight: 200;" fill="rgb(50, 49, 63)" stroke="none" stroke-width="1px">0.13</text><text x="0" y="32.363636363636346" dx="0em" dy="0.3em" style="text-anchor: end; visibility: inherit; font-family: &quot;Helvetica Neue&quot;, sans-serif; font-size: 12px; font-weight: 200;" fill="rgb(50, 49, 63)" stroke="none" stroke-width="1px">0.14</text><text x="0" y="16.181818181818187" dx="0em" dy="0.3em" style="text-anchor: end; visibility: hidden; font-family: &quot;Helvetica Neue&quot;, sans-serif; font-size: 12px; font-weight: 200;" fill="rgb(50, 49, 63)" stroke="none" stroke-width="1px">0.15</text><text x="0" y="0" dx="0em" dy="0.3em" style="text-anchor: end; visibility: hidden; font-family: &quot;Helvetica Neue&quot;, sans-serif; font-size: 12px; font-weight: 200;" fill="rgb(50, 49, 63)" stroke="none" stroke-width="1px">0.16</text></g><line x1="50" y1="0" x2="50" y2="178" fill="rgb(0, 0, 0)" stroke="rgb(204, 204, 204)" stroke-width="1px"></line></g></g><g transform="translate(50, 0)" clip-path="url(#clip_0)"><clipPath id="clip_0"><rect width="280" height="178"></rect></clipPath><g><g><g><line x1="0" y1="0" x2="0" y2="178" fill="rgb(0, 0, 0)" stroke="rgb(60, 60, 60)" stroke-width="1px" opacity="0.25"></line><line x1="20" y1="0" x2="20" y2="178" fill="rgb(0, 0, 0)" stroke="rgb(60, 60, 60)" stroke-width="1px" opacity="0.25"></line><line x1="40" y1="0" x2="40" y2="178" fill="rgb(0, 0, 0)" stroke="rgb(60, 60, 60)" stroke-width="1px" opacity="0.25"></line><line x1="60" y1="0" x2="60" y2="178" fill="rgb(0, 0, 0)" stroke="rgb(60, 60, 60)" stroke-width="1px" opacity="0.25"></line><line x1="80" y1="0" x2="80" y2="178" fill="rgb(0, 0, 0)" stroke="rgb(60, 60, 60)" stroke-width="1px" opacity="0.25"></line><line x1="100" y1="0" x2="100" y2="178" fill="rgb(0, 0, 0)" stroke="rgb(60, 60, 60)" stroke-width="1px" opacity="0.25"></line><line x1="120" y1="0" x2="120" y2="178" fill="rgb(0, 0, 0)" stroke="rgb(60, 60, 60)" stroke-width="1px" opacity="0.25"></line><line x1="140" y1="0" x2="140" y2="178" fill="rgb(0, 0, 0)" stroke="rgb(60, 60, 60)" stroke-width="1px" opacity="0.25"></line><line x1="160" y1="0" x2="160" y2="178" fill="rgb(0, 0, 0)" stroke="rgb(60, 60, 60)" stroke-width="1px" opacity="0.25"></line><line x1="180" y1="0" x2="180" y2="178" fill="rgb(0, 0, 0)" stroke="rgb(60, 60, 60)" stroke-width="1px" opacity="0.25"></line><line x1="200" y1="0" x2="200" y2="178" fill="rgb(0, 0, 0)" stroke="rgb(60, 60, 60)" stroke-width="1px" opacity="0.25"></line><line x1="220" y1="0" x2="220" y2="178" fill="rgb(0, 0, 0)" stroke="rgb(60, 60, 60)" stroke-width="1px" opacity="0.25"></line><line x1="240" y1="0" x2="240" y2="178" fill="rgb(0, 0, 0)" stroke="rgb(60, 60, 60)" stroke-width="1px" opacity="0.25"></line><line x1="260" y1="0" x2="260" y2="178" fill="rgb(0, 0, 0)" stroke="rgb(60, 60, 60)" stroke-width="1px" opacity="0.25"></line><line x1="280" y1="0" x2="280" y2="178" fill="rgb(0, 0, 0)" stroke="rgb(60, 60, 60)" stroke-width="1px" opacity="0.25"></line></g><g><line x1="0" y1="178" x2="280" y2="178" fill="rgb(0, 0, 0)" stroke="rgb(60, 60, 60)" stroke-width="1px" opacity="0.25"></line><line x1="0" y1="161.8181818181818" x2="280" y2="161.8181818181818" fill="rgb(0, 0, 0)" stroke="rgb(60, 60, 60)" stroke-width="1px" opacity="0.25"></line><line x1="0" y1="145.63636363636363" x2="280" y2="145.63636363636363" fill="rgb(0, 0, 0)" stroke="rgb(60, 60, 60)" stroke-width="1px" opacity="0.25"></line><line x1="0" y1="129.45454545454547" x2="280" y2="129.45454545454547" fill="rgb(0, 0, 0)" stroke="rgb(60, 60, 60)" stroke-width="1px" opacity="0.25"></line><line x1="0" y1="113.27272727272728" x2="280" y2="113.27272727272728" fill="rgb(0, 0, 0)" stroke="rgb(60, 60, 60)" stroke-width="1px" opacity="0.25"></line><line x1="0" y1="97.09090909090908" x2="280" y2="97.09090909090908" fill="rgb(0, 0, 0)" stroke="rgb(60, 60, 60)" stroke-width="1px" opacity="0.25"></line><line x1="0" y1="80.90909090909092" x2="280" y2="80.90909090909092" fill="rgb(0, 0, 0)" stroke="rgb(60, 60, 60)" stroke-width="1px" opacity="0.25"></line><line x1="0" y1="64.72727272727275" x2="280" y2="64.72727272727275" fill="rgb(0, 0, 0)" stroke="rgb(60, 60, 60)" stroke-width="1px" opacity="0.25"></line><line x1="0" y1="48.54545454545453" x2="280" y2="48.54545454545453" fill="rgb(0, 0, 0)" stroke="rgb(60, 60, 60)" stroke-width="1px" opacity="0.25"></line><line x1="0" y1="32.363636363636346" x2="280" y2="32.363636363636346" fill="rgb(0, 0, 0)" stroke="rgb(60, 60, 60)" stroke-width="1px" opacity="0.25"></line><line x1="0" y1="16.181818181818187" x2="280" y2="16.181818181818187" fill="rgb(0, 0, 0)" stroke="rgb(60, 60, 60)" stroke-width="1px" opacity="0.25"></line><line x1="0" y1="0" x2="280" y2="0" fill="rgb(0, 0, 0)" stroke="rgb(60, 60, 60)" stroke-width="1px" opacity="0.25"></line></g></g></g><g><g><line x1="0" y1="258.90909090909093" x2="280" y2="258.90909090909093" fill="rgb(0, 0, 0)" stroke="rgb(153, 153, 153)" stroke-width="1.5px"></line></g></g><g><g><line x1="20" y1="0" x2="20" y2="178" fill="rgb(0, 0, 0)" stroke="rgb(153, 153, 153)" stroke-width="1.5px"></line></g></g><g><g><g><g><g><path stroke="rgb(51, 187, 238)" stroke-width="2px" d="M24,-4.913302528172579L26,5.689039341228863L28,26.619984313746897L30,41.60220863878982L32,56.18541788014706L34,37.01792079174922L36,52.55106882961327L38,69.8532803102482L40,60.47171045102026L42,71.50408502334773L44,68.37847965753114L46,82.51387958338448L48,86.01299902023185L50,100.81695789632L52,90.64721674466686L54,86.17809152050317L56,96.3392103533368L58.00000000000001,83.94262040341758L60,91.23830417377484L62,85.72403032228074L64,107.99354253159889L66,108.1122589802473L68,94.77443981591597L70,107.64094886422077L72,115.66742019349881L74,84.73076740867073L76,101.38466467424712L78,117.43254137526382L80,119.72029942242932L82,117.1174928314922L84,120.605547917868L86,115.22059995995414L88,129.6181630429889L90,119.23801862191667L92,117.48695825712653L93.99999999999999,115.8228396651641L96,118.37189977982112L98,110.15571848562313L100,117.83665068555402L102,130.14457757181717L104,123.65830283409811L106,126.65081616123578L108,130.18127302004962L110,134.6898333532884L112,133.7434928879385L114,123.4560793154622L116.00000000000001,120.10790417322633L118,122.17912396466255L120,129.51538405607852L122,124.95479292851866L124,114.32028968278368L126,126.69113371730162L128,125.55899197706427L130,124.82414142399311L132,121.6820828097521L134,129.27878682695865L136,128.7375477258256L138,135.2614533768072L140,130.32712691331824L142,125.23506183968564L144,130.42198851271786L146,118.77008207939286L148,122.91293614741046L150,135.53889582481963L152,130.66455204985186L154,125.91311755436013L156,129.35553541033423L158,130.38249174288106L160,127.8513101159676L162.00000000000003,127.02376045319484L164,133.83643402016352L166,130.6378287504576L168,139.87651106409098L170,133.50905444167446L172,134.68806326246604L174,116.10011650780103L176,130.8463347512223L178,118.885886968998L180,116.70193959583511L182,116.63871833108033L184,111.40034680184657L186,124.38492108626056L187.99999999999997,124.80170981107612L190,123.59872232144696L192,133.72860558733174L194,133.75948714069514L196,129.71384421661324L198,131.49304526742105L200,117.99214980095834L202,128.22429526068532L204,136.05555758822797L206,121.15646801072754L208,119.93381055401798L210,129.49642000755256L212,117.20310341865715L214,111.59304726072868L216,127.63582592630166L218,127.42746383041771L220,116.49225445389581L222,118.5437585992153L224,123.80729341565421L226,127.8081996531093L228,135.20594512006826L230,126.77269420428334L232.00000000000003,131.13065856556233L234,133.4176768760581L236,134.2649090621021L238,141.85321146176412L240,140.41262665942998L242,140.12507778249687L244,143.01024771401424L246,142.83919309234648L248,131.62036727407644L250,137.94835045550616L252,152.6253680764317L254,142.6233893165018L256,132.11310103817033L258,135.00155374143108L260,137.57602663694158L262,144.4013145199915L264,148.37338664394346L266,137.72373545867694L268,134.6931840656711" style="fill: none;" fill="none"></path></g><g><path stroke="rgb(204, 51, 17)" stroke-width="2px" d="M30,-1.1822114831714998L32,9.802556226137852L34,36.76905698462073L36,45.271419563585965L38,38.769359372462446L40,55.02182791572265L42,61.82917652474272L44,73.59743654281054L46,55.76488617876828L48,59.892435358465534L50,70.01850544553689L52,72.36997163003623L54,88.41280134402902L56,88.07663304060684L58.00000000000001,74.40849750300364L60,82.60116726043296L62,84.86488283111319L64,96.95099101544031L66,89.007965152849L68,98.49158438688235L70,104.5390811557538L72,110.47080438004438L74,113.50853492022266L76,102.04900916105564L78,97.10641423572986L80,100.56301541489098L82,94.54061467454075L84,99.93017631011544L86,111.10763027051637L88,116.66049359047497L90,118.60112064794258L92,125.85761211446653L93.99999999999999,113.69039382288187L96,116.48351203676074L98,124.28540075653413L100,109.3376297208637L102,118.45393436059246L104,122.84535467640586L106,128.82678214749893L108,135.82994673349458L110,130.8895976121368L112,117.12061657489147L114,118.41357784154329L116.00000000000001,113.42215439156043L118,122.7771855903584L120,128.5967351623411L122,130.1950757346871L124,130.8741981238981L126,130.58315302111563L128,127.50336902193202L130,128.26147855269488L132,136.10112193629232L134,120.03211716600543L136,117.41430169326108L138,131.11167552135407L140,130.01947716944986L142,134.27352664081045L144,132.74204091661935L146,130.67004219660507L148,137.1844429144333L150,141.3207418228267L152,131.7622971467314L154,136.86645425695463L156,136.43683809731286L158,141.33621507212933L160,136.76623651037414L162.00000000000003,136.03169203191874L164,135.79818582333687L166,134.78656877483738L168,136.66894974246023L170,135.76577155876072L172,140.21131998407137L174,143.7047772728206L176,139.8166170529388L178,139.9072104482786L180,143.2748371843766L182,138.99577371926188L184,133.07759366857024L186,135.35081131821175L187.99999999999997,133.73086636240822L190,131.66715432661823L192,136.33701833597019L194,131.98614821088483L196,127.14435893284944L198,127.59055299643188L200,132.09334791027342L202,131.83715736624936L204,130.4052482547168L206,133.25191038695164L208,138.66688232439165L210,143.5032440862826L212,141.0789272311573L214,143.52154238416765L216,145.80536447293878L218,144.41767560221962L220,145.81219172833198L222,142.01753407821664L224,142.2747765038023L226,142.65186142807497L228,142.52651899659537L230,144.93824381050354L232.00000000000003,150.6974722822069L234,151.2772338600329L236,143.01452026760083L238,145.30193617016104L240,142.23047602326778L242,145.22234898353824L244,144.95759925462835L246,145.3935202714521L248,147.0609207669383L250,148.86850771098975L252,148.28807668072855L254,146.27878454057281L256,147.96315102469217L258,148.23180113467532L260,153.61777906448327L262,149.00797393383627L264,145.35256045681916L266,148.45476999383055L268,150.96610896777548" style="fill: none;" fill="none"></path></g></g></g></g><g opacity="0.2"><g><g><g><path stroke="rgb(51, 187, 238)" stroke-width="2px" d="M22,-13.37728680263865L24,38.093557238578796L26,18.1573933796449L28,53.94742606986654L30,62.32801848108119L32,77.03964042663574L34,9.071526028893203L36,75.45944502678786L38,95.54504789005627L40,46.48444581031799L42,87.99260918660597L44,63.700277252630755L46,103.68928675218062L48,91.25756509195675L50,123.01245531168851L52,75.39690851081502L54,79.47553839466788L56,111.57934065840462L58.00000000000001,65.34886857596312L60,102.18142971667378L62,77.45280099456961L64,141.39737117290497L66,108.29033224691044L68,74.76780586892909L70,126.9406575668942L72,127.70710664987564L74,38.32583572647789L76,126.36549523201856L78,141.50434755737132L80,123.15193573453209L82,113.2132834629579L84,125.83763013102791L86,107.14317840879615L88,151.21450704878026L90,103.66780225797133L92,114.86036773703316L93.99999999999999,113.32666179266843L96,122.1954899376089L98,97.83144657178359L100,129.35804897004908L102,148.60646788640457L104,113.92889073220167L106,131.1395861506462L108,135.47695830735293L110,141.4526738524437L112,132.3239821900021L114,108.02495895732532L116.00000000000001,115.08564145998523L118,125.28595365177503L120,140.5197741931135L122,118.11390623721209L124,98.36853481422771L126,145.2473997690461L128,123.86077936670998L130,123.72186559438705L132,116.96899488839236L134,140.67384285276586L136,127.92568907412615L138,145.04731185327876L140,122.9256372180852L142,117.59696422923696L144,138.20237852226603L146,101.29222242940556L148,129.12721724943682L150,154.47783534093338L152,123.35303638740021L154,118.78596581112257L156,134.51916219429538L158,131.9229262417013L160,124.05453767559746L162.00000000000003,125.7824359590357L164,144.05544437061656L166,125.83992084589872L168,153.73453453454104L170,123.9578695080497L172,136.4565764936534L174,88.21819637580352L176,152.96566211635417L178,100.94521529566158L180,113.42601853609085L182,116.54388643394819L184,103.54278950799595L186,143.86178251288155L187.99999999999997,125.42689289829949L190,121.7942410870032L192,148.9234304861589L194,133.80580947074023L196,123.64537983049047L198,134.1618468436328L200,97.74080660126427L202,143.57251345027578L204,147.80245107954198L206,98.80783364447682L208,118.0998243689537L210,143.8403341878544L212,98.76312853531404L214,103.17796302383597L216,151.69999392466113L218,127.11492068659177L220,100.089440389113L222,121.62101481719452L224,131.70259564031255L226,133.80955900929192L228,146.3025633205067L230,114.12281783060595L232.00000000000003,137.66760510748082L234,136.84820434180173L236,135.53575734116816L238,153.23566506125712L240,138.2517494559288L242,139.6937544670972L244,147.33800261129034L246,142.58261115984484L248,114.79212854667145L250,147.44032522765073L252,174.64089450781995L254,127.62042117660695L256,116.34766862067309L258,139.33423279632223L260,141.43773598020726L262,154.63924634456635L264,154.33149482987145L266,121.74925868077713L268,130.1473569761623" style="fill: none;" fill="none"></path></g><g><path stroke="rgb(204, 51, 17)" stroke-width="2px" d="M22,-131.00884709574962L24,1.0463802272623468L26,-3.564611792564392L28,9.250611706213505L30,42.90408258004621L32,25.510949806733578L34,76.08647396889602L36,57.810752868652344L38,29.114557764746934L40,79.2531220371073L42,72.00315414775503L44,91.21140115911311L46,29.05099645527926L48,66.07890734889291L50,85.20046888698232L52,75.89617584510283L54,112.47297264229168L56,87.57243179733103L58.00000000000001,53.907543518326506L60,94.88972259109671L62,88.2603816986084L64,115.07991467280823L66,77.09352045167577L68,112.7169458324259L70,113.61030051924966L72,119.36837403882635L74,118.06512606685811L76,84.85973107814789L78,89.6925245794383L80,105.74791603738612L82,85.50701476227154L84,108.01451812007211L86,127.87381041049957L88,124.98978833176872L90,121.51206118410283L92,136.74234920198268L93.99999999999999,95.43956649845298L96,120.67318934202194L98,135.98823381012136L100,86.91597319733013L102,132.128391309218L104,129.43248514695603L106,137.79892335154796L108,146.33469361066818L110,123.47907393087041L112,96.46714502031153L114,120.35301974144849L116.00000000000001,105.93501921675423L118,136.80973238836634L120,137.3260595202446L122,132.59258659319445L124,131.89288170771167L126,130.14658536694267L128,122.88369302316147L130,129.39864284883848L132,147.86058701168406L134,95.92861001058058L136,113.48757848414509L138,151.6577362634919L140,128.3811796415936L142,140.65460084785116L144,130.44481233033267L146,127.56204411658373L148,146.95604399117556L150,147.52519018541682L152,117.42463013258848L154,144.52268992228943L156,135.79241385785016L158,148.68528053435412L160,129.91126866774127L162.00000000000003,134.9298753142357L164,135.44792651046407L166,133.2691432020881L168,139.49252119389448L170,134.41100428321147L172,146.87964262203738L174,148.94496320594442L176,133.9843767231161L178,140.0431005412882L180,148.32627728852358L182,132.57717852158981L184,124.20032359253278L186,138.76063779267398L187.99999999999997,131.30094892870298L190,128.57158627293327L192,143.34181434999812L194,125.45984302325684L196,119.88167501579633L198,128.25984409180555L200,138.8475402810357L202,131.45287155021322L204,128.25738458741796L206,137.5219035853039L208,146.78934023055163L210,150.75778672911906L212,137.44245194846934L214,147.1854651136832L216,149.2310976060954L218,142.33614229614085L220,147.90396591750059L222,136.32554760304365L224,142.6606401421807L226,143.217488814484L228,142.338505349376L230,148.55583103136584L232.00000000000003,159.3363149897619L234,152.14687622677195L236,130.6204498789527L238,148.7330600240014L240,137.62328580292788L242,149.71015842394397L244,144.56047466126356L246,146.04740179668772L248,149.56202151016757L250,151.57988812706688L252,147.4174301353368L254,143.26484633033925L256,150.48970075087115L258,148.63477629965L260,161.69674595919523L262,142.0932662378658L264,139.8694402412935L266,153.10808429934764L268,154.7331174286929" style="fill: none;" fill="none"></path></g></g></g></g></g></g><g transform="translate(50, 178)" clip-path="url(#clip_1)"><clipPath id="clip_1"><rect width="280" height="22"></rect></clipPath><g><g><line x1="0" y1="0" x2="0" y2="5" style="visibility: inherit;" fill="rgb(0, 0, 0)" stroke="rgb(204, 204, 204)" stroke-width="1px"></line><line x1="20" y1="0" x2="20" y2="5" style="visibility: inherit;" fill="rgb(0, 0, 0)" stroke="rgb(204, 204, 204)" stroke-width="1px"></line><line x1="40" y1="0" x2="40" y2="5" style="visibility: inherit;" fill="rgb(0, 0, 0)" stroke="rgb(204, 204, 204)" stroke-width="1px"></line><line x1="60" y1="0" x2="60" y2="5" style="visibility: inherit;" fill="rgb(0, 0, 0)" stroke="rgb(204, 204, 204)" stroke-width="1px"></line><line x1="80" y1="0" x2="80" y2="5" style="visibility: inherit;" fill="rgb(0, 0, 0)" stroke="rgb(204, 204, 204)" stroke-width="1px"></line><line x1="100" y1="0" x2="100" y2="5" style="visibility: inherit;" fill="rgb(0, 0, 0)" stroke="rgb(204, 204, 204)" stroke-width="1px"></line><line x1="120" y1="0" x2="120" y2="5" style="visibility: inherit;" fill="rgb(0, 0, 0)" stroke="rgb(204, 204, 204)" stroke-width="1px"></line><line x1="140" y1="0" x2="140" y2="5" style="visibility: inherit;" fill="rgb(0, 0, 0)" stroke="rgb(204, 204, 204)" stroke-width="1px"></line><line x1="160" y1="0" x2="160" y2="5" style="visibility: inherit;" fill="rgb(0, 0, 0)" stroke="rgb(204, 204, 204)" stroke-width="1px"></line><line x1="180" y1="0" x2="180" y2="5" style="visibility: inherit;" fill="rgb(0, 0, 0)" stroke="rgb(204, 204, 204)" stroke-width="1px"></line><line x1="200" y1="0" x2="200" y2="5" style="visibility: inherit;" fill="rgb(0, 0, 0)" stroke="rgb(204, 204, 204)" stroke-width="1px"></line><line x1="220" y1="0" x2="220" y2="5" style="visibility: inherit;" fill="rgb(0, 0, 0)" stroke="rgb(204, 204, 204)" stroke-width="1px"></line><line x1="240" y1="0" x2="240" y2="5" style="visibility: inherit;" fill="rgb(0, 0, 0)" stroke="rgb(204, 204, 204)" stroke-width="1px"></line><line x1="260" y1="0" x2="260" y2="5" style="visibility: inherit;" fill="rgb(0, 0, 0)" stroke="rgb(204, 204, 204)" stroke-width="1px"></line><line x1="280" y1="0" x2="280" y2="5" style="visibility: inherit;" fill="rgb(0, 0, 0)" stroke="rgb(204, 204, 204)" stroke-width="1px"></line></g><g transform="translate(0, 8)"><text x="0" y="0" dx="0em" dy="0.95em" style="text-anchor: middle; visibility: hidden; font-family: &quot;Helvetica Neue&quot;, sans-serif; font-size: 12px; font-weight: 200;" fill="rgb(50, 49, 63)" stroke="none" stroke-width="1px">-10</text><text x="20" y="0" dx="0em" dy="0.95em" style="text-anchor: middle; visibility: inherit; font-family: &quot;Helvetica Neue&quot;, sans-serif; font-size: 12px; font-weight: 200;" fill="rgb(50, 49, 63)" stroke="none" stroke-width="1px">0</text><text x="40" y="0" dx="0em" dy="0.95em" style="text-anchor: middle; visibility: hidden; font-family: &quot;Helvetica Neue&quot;, sans-serif; font-size: 12px; font-weight: 200;" fill="rgb(50, 49, 63)" stroke="none" stroke-width="1px">10</text><text x="60" y="0" dx="0em" dy="0.95em" style="text-anchor: middle; visibility: inherit; font-family: &quot;Helvetica Neue&quot;, sans-serif; font-size: 12px; font-weight: 200;" fill="rgb(50, 49, 63)" stroke="none" stroke-width="1px">20</text><text x="80" y="0" dx="0em" dy="0.95em" style="text-anchor: middle; visibility: hidden; font-family: &quot;Helvetica Neue&quot;, sans-serif; font-size: 12px; font-weight: 200;" fill="rgb(50, 49, 63)" stroke="none" stroke-width="1px">30</text><text x="100" y="0" dx="0em" dy="0.95em" style="text-anchor: middle; visibility: inherit; font-family: &quot;Helvetica Neue&quot;, sans-serif; font-size: 12px; font-weight: 200;" fill="rgb(50, 49, 63)" stroke="none" stroke-width="1px">40</text><text x="120" y="0" dx="0em" dy="0.95em" style="text-anchor: middle; visibility: hidden; font-family: &quot;Helvetica Neue&quot;, sans-serif; font-size: 12px; font-weight: 200;" fill="rgb(50, 49, 63)" stroke="none" stroke-width="1px">50</text><text x="140" y="0" dx="0em" dy="0.95em" style="text-anchor: middle; visibility: inherit; font-family: &quot;Helvetica Neue&quot;, sans-serif; font-size: 12px; font-weight: 200;" fill="rgb(50, 49, 63)" stroke="none" stroke-width="1px">60</text><text x="160" y="0" dx="0em" dy="0.95em" style="text-anchor: middle; visibility: hidden; font-family: &quot;Helvetica Neue&quot;, sans-serif; font-size: 12px; font-weight: 200;" fill="rgb(50, 49, 63)" stroke="none" stroke-width="1px">70</text><text x="180" y="0" dx="0em" dy="0.95em" style="text-anchor: middle; visibility: inherit; font-family: &quot;Helvetica Neue&quot;, sans-serif; font-size: 12px; font-weight: 200;" fill="rgb(50, 49, 63)" stroke="none" stroke-width="1px">80</text><text x="200" y="0" dx="0em" dy="0.95em" style="text-anchor: middle; visibility: hidden; font-family: &quot;Helvetica Neue&quot;, sans-serif; font-size: 12px; font-weight: 200;" fill="rgb(50, 49, 63)" stroke="none" stroke-width="1px">90</text><text x="220" y="0" dx="0em" dy="0.95em" style="text-anchor: middle; visibility: inherit; font-family: &quot;Helvetica Neue&quot;, sans-serif; font-size: 12px; font-weight: 200;" fill="rgb(50, 49, 63)" stroke="none" stroke-width="1px">100</text><text x="240" y="0" dx="0em" dy="0.95em" style="text-anchor: middle; visibility: hidden; font-family: &quot;Helvetica Neue&quot;, sans-serif; font-size: 12px; font-weight: 200;" fill="rgb(50, 49, 63)" stroke="none" stroke-width="1px">110</text><text x="260" y="0" dx="0em" dy="0.95em" style="text-anchor: middle; visibility: inherit; font-family: &quot;Helvetica Neue&quot;, sans-serif; font-size: 12px; font-weight: 200;" fill="rgb(50, 49, 63)" stroke="none" stroke-width="1px">120</text><text x="280" y="0" dx="0em" dy="0.95em" style="text-anchor: middle; visibility: hidden; font-family: &quot;Helvetica Neue&quot;, sans-serif; font-size: 12px; font-weight: 200;" fill="rgb(50, 49, 63)" stroke="none" stroke-width="1px">130</text></g><line x1="0" y1="0" x2="280" y2="0" fill="rgb(0, 0, 0)" stroke="rgb(204, 204, 204)" stroke-width="1px"></line></g></g></g></g></svg>